<mxfile host="65bd71144e">
    <diagram id="5hLkSUDmJKDKyA7zmBh3" name="Page-1">
        <mxGraphModel dx="1631" dy="414" grid="1" gridSize="10" guides="1" tooltips="1" connect="1" arrows="1" fold="1" page="1" pageScale="1" pageWidth="850" pageHeight="1100" math="0" shadow="0">
            <root>
                <mxCell id="0"/>
                <mxCell id="1" parent="0"/>
                <mxCell id="2" value="&lt;div style=&quot;&quot;&gt;&lt;span style=&quot;background-color: initial;&quot;&gt;&lt;font style=&quot;font-size: 14px;&quot;&gt;&lt;b&gt;Q. Given an array of integers, return an array with even integers removed.&lt;/b&gt;&lt;/font&gt;&lt;/span&gt;&lt;/div&gt;&lt;div style=&quot;&quot;&gt;&lt;span style=&quot;background-color: initial;&quot;&gt;&lt;font size=&quot;3&quot;&gt;Example -&amp;nbsp;&lt;/font&gt;&lt;/span&gt;&lt;/div&gt;&lt;div style=&quot;&quot;&gt;&lt;span style=&quot;background-color: initial;&quot;&gt;&lt;font size=&quot;3&quot;&gt;Input: arr = {3, 2, 4, 7, 10, 6, 5}&lt;/font&gt;&lt;/span&gt;&lt;/div&gt;&lt;div style=&quot;&quot;&gt;&lt;span style=&quot;background-color: initial;&quot;&gt;&lt;font size=&quot;3&quot;&gt;Output: arr = {3, 7, 5}&lt;/font&gt;&lt;/span&gt;&lt;/div&gt;" style="text;html=1;strokeColor=none;fillColor=none;align=left;verticalAlign=middle;whiteSpace=wrap;rounded=0;" parent="1" vertex="1">
                    <mxGeometry x="30" y="40" width="750" height="90" as="geometry"/>
                </mxCell>
                <mxCell id="3" value="&lt;div style=&quot;color: rgb(201, 209, 217); background-color: rgb(13, 17, 23); font-family: Consolas, &amp;quot;Courier New&amp;quot;, monospace; font-size: 14px; line-height: 19px;&quot;&gt;&lt;div&gt;&lt;span style=&quot;color: #ec8e2c;&quot;&gt;int&lt;/span&gt;[] &lt;span style=&quot;color: #d2a8ff;&quot;&gt;removeEven&lt;/span&gt;(&lt;span style=&quot;color: #ec8e2c;&quot;&gt;int&lt;/span&gt;[] &lt;span style=&quot;color: #fdac54;&quot;&gt;arr&lt;/span&gt;){&lt;/div&gt;&lt;div&gt;&amp;nbsp; &lt;span style=&quot;color: #ec8e2c;&quot;&gt;int&lt;/span&gt;&lt;span style=&quot;color: #fdac54;&quot;&gt; &lt;/span&gt;oddCount&lt;span style=&quot;color: #fdac54;&quot;&gt; &lt;/span&gt;&lt;span style=&quot;color: #ec8e2c;&quot;&gt;=&lt;/span&gt; &lt;span style=&quot;color: #79c0ff;&quot;&gt;0&lt;/span&gt;;&lt;/div&gt;&lt;div&gt;&amp;nbsp; &lt;span style=&quot;color: #ec8e2c;&quot;&gt;for&lt;/span&gt;(&lt;span style=&quot;color: #ec8e2c;&quot;&gt;int&lt;/span&gt;&lt;span style=&quot;color: #fdac54;&quot;&gt; &lt;/span&gt;i&lt;span style=&quot;color: #fdac54;&quot;&gt; &lt;/span&gt;&lt;span style=&quot;color: #ec8e2c;&quot;&gt;=&lt;/span&gt; &lt;span style=&quot;color: #79c0ff;&quot;&gt;0&lt;/span&gt;; i&lt;span style=&quot;color: #ec8e2c;&quot;&gt;&amp;lt;&lt;/span&gt;&lt;span style=&quot;color: #fdac54;&quot;&gt;arr&lt;/span&gt;.&lt;span style=&quot;color: #79c0ff;&quot;&gt;length&lt;/span&gt;; i&lt;span style=&quot;color: #ec8e2c;&quot;&gt;++&lt;/span&gt;){&lt;/div&gt;&lt;div&gt;&amp;nbsp; &amp;nbsp; &lt;span style=&quot;color: #ec8e2c;&quot;&gt;if&lt;/span&gt;(&lt;span style=&quot;color: #fdac54;&quot;&gt;arr&lt;/span&gt;[i]&lt;span style=&quot;color: #ec8e2c;&quot;&gt;%&lt;/span&gt;&lt;span style=&quot;color: #79c0ff;&quot;&gt;2&lt;/span&gt; &lt;span style=&quot;color: #ec8e2c;&quot;&gt;!=&lt;/span&gt; &lt;span style=&quot;color: #79c0ff;&quot;&gt;0&lt;/span&gt;){&lt;/div&gt;&lt;div&gt;&amp;nbsp; &amp;nbsp; &amp;nbsp; oddCount&lt;span style=&quot;color: #ec8e2c;&quot;&gt;++&lt;/span&gt;;&lt;/div&gt;&lt;div&gt;&amp;nbsp; &amp;nbsp; }&lt;/div&gt;&lt;div&gt;&amp;nbsp; }&lt;/div&gt;&lt;br&gt;&lt;div&gt;&amp;nbsp; &lt;span style=&quot;color: #ec8e2c;&quot;&gt;int&lt;/span&gt;&lt;span style=&quot;color: #fdac54;&quot;&gt;[] &lt;/span&gt;result&lt;span style=&quot;color: #fdac54;&quot;&gt; &lt;/span&gt;&lt;span style=&quot;color: #ec8e2c;&quot;&gt;=&lt;/span&gt; &lt;span style=&quot;color: #ec8e2c;&quot;&gt;new&lt;/span&gt; &lt;span style=&quot;color: #ec8e2c;&quot;&gt;int&lt;/span&gt;[oddCount];&lt;/div&gt;&lt;div&gt;&amp;nbsp; &lt;span style=&quot;color: #ec8e2c;&quot;&gt;int&lt;/span&gt;&lt;span style=&quot;color: #fdac54;&quot;&gt; &lt;/span&gt;idx&lt;span style=&quot;color: #fdac54;&quot;&gt; &lt;/span&gt;&lt;span style=&quot;color: #ec8e2c;&quot;&gt;=&lt;/span&gt; &lt;span style=&quot;color: #79c0ff;&quot;&gt;0&lt;/span&gt;;&lt;/div&gt;&lt;div&gt;&amp;nbsp; &lt;span style=&quot;color: #ec8e2c;&quot;&gt;for&lt;/span&gt;(&lt;span style=&quot;color: #ec8e2c;&quot;&gt;int&lt;/span&gt;&lt;span style=&quot;color: #fdac54;&quot;&gt; &lt;/span&gt;i&lt;span style=&quot;color: #ec8e2c;&quot;&gt;=&lt;/span&gt;&lt;span style=&quot;color: #79c0ff;&quot;&gt;0&lt;/span&gt;; i&lt;span style=&quot;color: #ec8e2c;&quot;&gt;&amp;lt;&lt;/span&gt;&lt;span style=&quot;color: #fdac54;&quot;&gt;arr&lt;/span&gt;.&lt;span style=&quot;color: #79c0ff;&quot;&gt;length&lt;/span&gt;; i&lt;span style=&quot;color: #ec8e2c;&quot;&gt;++&lt;/span&gt;){&lt;/div&gt;&lt;div&gt;&amp;nbsp; &amp;nbsp; &lt;span style=&quot;color: #ec8e2c;&quot;&gt;if&lt;/span&gt;(&lt;span style=&quot;color: #fdac54;&quot;&gt;arr&lt;/span&gt;[i]&lt;span style=&quot;color: #ec8e2c;&quot;&gt;%&lt;/span&gt;&lt;span style=&quot;color: #79c0ff;&quot;&gt;2&lt;/span&gt; &lt;span style=&quot;color: #ec8e2c;&quot;&gt;!=&lt;/span&gt; &lt;span style=&quot;color: #79c0ff;&quot;&gt;0&lt;/span&gt;){&lt;/div&gt;&lt;div&gt;&amp;nbsp; &amp;nbsp; &amp;nbsp; result[idx] &lt;span style=&quot;color: #ec8e2c;&quot;&gt;=&lt;/span&gt; &lt;span style=&quot;color: #fdac54;&quot;&gt;arr&lt;/span&gt;[i];&lt;/div&gt;&lt;div&gt;&amp;nbsp; &amp;nbsp; &amp;nbsp; idx&lt;span style=&quot;color: #ec8e2c;&quot;&gt;++&lt;/span&gt;;&lt;/div&gt;&lt;div&gt;&amp;nbsp; &amp;nbsp; }&lt;/div&gt;&lt;div&gt;&amp;nbsp; }&lt;/div&gt;&lt;div&gt;&amp;nbsp; &lt;span style=&quot;color: #ec8e2c;&quot;&gt;return&lt;/span&gt; result;&lt;/div&gt;&lt;div&gt;}&lt;/div&gt;&lt;/div&gt;" style="text;html=1;strokeColor=none;fillColor=none;align=left;verticalAlign=middle;whiteSpace=wrap;rounded=0;" parent="1" vertex="1">
                    <mxGeometry x="520" y="140" width="280" height="350" as="geometry"/>
                </mxCell>
                <mxCell id="4" value="&lt;font style=&quot;font-size: 18px;&quot;&gt;arr[]&lt;/font&gt;" style="text;html=1;strokeColor=none;fillColor=none;align=center;verticalAlign=middle;whiteSpace=wrap;rounded=0;" parent="1" vertex="1">
                    <mxGeometry x="30" y="160" width="60" height="30" as="geometry"/>
                </mxCell>
                <mxCell id="5" value="3" style="rounded=0;whiteSpace=wrap;html=1;fontSize=18;" parent="1" vertex="1">
                    <mxGeometry x="110" y="160" width="50" height="40" as="geometry"/>
                </mxCell>
                <mxCell id="6" value="2" style="rounded=0;whiteSpace=wrap;html=1;fontSize=18;" parent="1" vertex="1">
                    <mxGeometry x="160" y="160" width="50" height="40" as="geometry"/>
                </mxCell>
                <mxCell id="7" value="4" style="rounded=0;whiteSpace=wrap;html=1;fontSize=18;" parent="1" vertex="1">
                    <mxGeometry x="200" y="160" width="50" height="40" as="geometry"/>
                </mxCell>
                <mxCell id="8" value="7" style="rounded=0;whiteSpace=wrap;html=1;fontSize=18;" parent="1" vertex="1">
                    <mxGeometry x="250" y="160" width="50" height="40" as="geometry"/>
                </mxCell>
                <mxCell id="9" value="10" style="rounded=0;whiteSpace=wrap;html=1;fontSize=18;" parent="1" vertex="1">
                    <mxGeometry x="300" y="160" width="50" height="40" as="geometry"/>
                </mxCell>
                <mxCell id="10" value="6" style="rounded=0;whiteSpace=wrap;html=1;fontSize=18;" parent="1" vertex="1">
                    <mxGeometry x="350" y="160" width="50" height="40" as="geometry"/>
                </mxCell>
                <mxCell id="11" value="5" style="rounded=0;whiteSpace=wrap;html=1;fontSize=18;" parent="1" vertex="1">
                    <mxGeometry x="400" y="160" width="50" height="40" as="geometry"/>
                </mxCell>
                <mxCell id="12" value="0" style="text;html=1;align=center;verticalAlign=middle;resizable=0;points=[];autosize=1;strokeColor=none;fillColor=none;fontSize=18;" parent="1" vertex="1">
                    <mxGeometry x="115" y="200" width="30" height="40" as="geometry"/>
                </mxCell>
                <mxCell id="13" value="1" style="text;html=1;align=center;verticalAlign=middle;resizable=0;points=[];autosize=1;strokeColor=none;fillColor=none;fontSize=18;" parent="1" vertex="1">
                    <mxGeometry x="170" y="200" width="30" height="40" as="geometry"/>
                </mxCell>
                <mxCell id="14" value="2" style="text;html=1;align=center;verticalAlign=middle;resizable=0;points=[];autosize=1;strokeColor=none;fillColor=none;fontSize=18;" parent="1" vertex="1">
                    <mxGeometry x="210" y="200" width="30" height="40" as="geometry"/>
                </mxCell>
                <mxCell id="15" value="3" style="text;html=1;align=center;verticalAlign=middle;resizable=0;points=[];autosize=1;strokeColor=none;fillColor=none;fontSize=18;" parent="1" vertex="1">
                    <mxGeometry x="260" y="200" width="30" height="40" as="geometry"/>
                </mxCell>
                <mxCell id="16" value="4" style="text;html=1;align=center;verticalAlign=middle;resizable=0;points=[];autosize=1;strokeColor=none;fillColor=none;fontSize=18;" parent="1" vertex="1">
                    <mxGeometry x="310" y="200" width="30" height="40" as="geometry"/>
                </mxCell>
                <mxCell id="17" value="5" style="text;html=1;align=center;verticalAlign=middle;resizable=0;points=[];autosize=1;strokeColor=none;fillColor=none;fontSize=18;" parent="1" vertex="1">
                    <mxGeometry x="360" y="200" width="30" height="40" as="geometry"/>
                </mxCell>
                <mxCell id="18" value="6" style="text;html=1;align=center;verticalAlign=middle;resizable=0;points=[];autosize=1;strokeColor=none;fillColor=none;fontSize=18;" parent="1" vertex="1">
                    <mxGeometry x="410" y="200" width="30" height="40" as="geometry"/>
                </mxCell>
                <mxCell id="20" value="3" style="rounded=0;whiteSpace=wrap;html=1;fontSize=18;" parent="1" vertex="1">
                    <mxGeometry x="110" y="260" width="50" height="40" as="geometry"/>
                </mxCell>
                <mxCell id="21" value="7" style="rounded=0;whiteSpace=wrap;html=1;fontSize=18;" parent="1" vertex="1">
                    <mxGeometry x="160" y="260" width="50" height="40" as="geometry"/>
                </mxCell>
                <mxCell id="22" value="5" style="rounded=0;whiteSpace=wrap;html=1;fontSize=18;" parent="1" vertex="1">
                    <mxGeometry x="200" y="260" width="50" height="40" as="geometry"/>
                </mxCell>
                <mxCell id="23" value="0" style="text;html=1;align=center;verticalAlign=middle;resizable=0;points=[];autosize=1;strokeColor=none;fillColor=none;fontSize=18;" parent="1" vertex="1">
                    <mxGeometry x="115" y="300" width="30" height="40" as="geometry"/>
                </mxCell>
                <mxCell id="24" value="1" style="text;html=1;align=center;verticalAlign=middle;resizable=0;points=[];autosize=1;strokeColor=none;fillColor=none;fontSize=18;" parent="1" vertex="1">
                    <mxGeometry x="170" y="300" width="30" height="40" as="geometry"/>
                </mxCell>
                <mxCell id="25" value="2" style="text;html=1;align=center;verticalAlign=middle;resizable=0;points=[];autosize=1;strokeColor=none;fillColor=none;fontSize=18;" parent="1" vertex="1">
                    <mxGeometry x="210" y="300" width="30" height="40" as="geometry"/>
                </mxCell>
                <mxCell id="26" value="&lt;font style=&quot;font-size: 18px;&quot;&gt;arr[]&lt;/font&gt;" style="text;html=1;strokeColor=none;fillColor=none;align=center;verticalAlign=middle;whiteSpace=wrap;rounded=0;" parent="1" vertex="1">
                    <mxGeometry x="30" y="265" width="60" height="30" as="geometry"/>
                </mxCell>
                <mxCell id="27" value="&lt;div style=&quot;&quot;&gt;&lt;span style=&quot;font-size: 14px;&quot;&gt;&lt;b&gt;Q2. Given an array or string, the task is to reverse the&amp;nbsp; array or string&lt;/b&gt;.&lt;/span&gt;&lt;/div&gt;&lt;div style=&quot;&quot;&gt;&lt;span style=&quot;font-size: 14px;&quot;&gt;Example-&lt;/span&gt;&lt;/div&gt;&lt;div style=&quot;&quot;&gt;&lt;span style=&quot;font-size: 14px;&quot;&gt;Given array of integers - {2, 11, 5, 10, 7, 8}&lt;/span&gt;&lt;/div&gt;&lt;div style=&quot;&quot;&gt;&lt;span style=&quot;font-size: 14px;&quot;&gt;&lt;br&gt;&lt;/span&gt;&lt;/div&gt;&lt;div style=&quot;&quot;&gt;&lt;span style=&quot;font-size: 14px;&quot;&gt;Solution -&lt;/span&gt;&lt;/div&gt;&lt;div style=&quot;&quot;&gt;&lt;span style=&quot;font-size: 14px;&quot;&gt;return reverse of array - {8, 7, 10, 5, 11, 2}&lt;/span&gt;&lt;/div&gt;" style="text;html=1;strokeColor=none;fillColor=none;align=left;verticalAlign=middle;whiteSpace=wrap;rounded=0;" parent="1" vertex="1">
                    <mxGeometry x="20" y="530" width="750" height="120" as="geometry"/>
                </mxCell>
                <mxCell id="28" value="&lt;div style=&quot;color: rgb(201, 209, 217); background-color: rgb(13, 17, 23); font-family: Consolas, &amp;quot;Courier New&amp;quot;, monospace; font-size: 14px; line-height: 19px;&quot;&gt;&lt;div&gt;&lt;span style=&quot;color: #d2a8ff;&quot;&gt;reverseArray&lt;/span&gt;(&lt;span style=&quot;color: #ec8e2c;&quot;&gt;int&lt;/span&gt; &lt;span style=&quot;color: #fdac54;&quot;&gt;numbers&lt;/span&gt;[], &lt;span style=&quot;color: #ec8e2c;&quot;&gt;int&lt;/span&gt; &lt;span style=&quot;color: #fdac54;&quot;&gt;start&lt;/span&gt;, &lt;span style=&quot;color: #ec8e2c;&quot;&gt;int&lt;/span&gt; &lt;span style=&quot;color: #fdac54;&quot;&gt;end&lt;/span&gt;){&lt;/div&gt;&lt;div&gt;&amp;nbsp; &lt;span style=&quot;color: #ec8e2c;&quot;&gt;while&lt;/span&gt;(&lt;span style=&quot;color: #fdac54;&quot;&gt;start&lt;/span&gt; &lt;span style=&quot;color: #ec8e2c;&quot;&gt;&amp;lt;&lt;/span&gt; &lt;span style=&quot;color: #fdac54;&quot;&gt;end&lt;/span&gt;){&lt;/div&gt;&lt;div&gt;&amp;nbsp; &amp;nbsp; &lt;span style=&quot;color: #ec8e2c;&quot;&gt;int&lt;/span&gt;&lt;span style=&quot;color: #fdac54;&quot;&gt; &lt;/span&gt;temp&lt;span style=&quot;color: #fdac54;&quot;&gt; &lt;/span&gt;&lt;span style=&quot;color: #ec8e2c;&quot;&gt;=&lt;/span&gt; &lt;span style=&quot;color: #fdac54;&quot;&gt;numbers&lt;/span&gt;[&lt;span style=&quot;color: #fdac54;&quot;&gt;start&lt;/span&gt;];&lt;/div&gt;&lt;div&gt;&amp;nbsp; &amp;nbsp; &lt;span style=&quot;color: #fdac54;&quot;&gt;numbers&lt;/span&gt;[&lt;span style=&quot;color: #fdac54;&quot;&gt;start&lt;/span&gt;] &lt;span style=&quot;color: #ec8e2c;&quot;&gt;=&lt;/span&gt; &lt;span style=&quot;color: #fdac54;&quot;&gt;numbers&lt;/span&gt;[&lt;span style=&quot;color: #fdac54;&quot;&gt;end&lt;/span&gt;];&lt;/div&gt;&lt;div&gt;&amp;nbsp; &amp;nbsp; &lt;span style=&quot;color: #fdac54;&quot;&gt;numbers&lt;/span&gt;[&lt;span style=&quot;color: #fdac54;&quot;&gt;end&lt;/span&gt;] &lt;span style=&quot;color: #ec8e2c;&quot;&gt;=&lt;/span&gt; temp;&lt;/div&gt;&lt;div&gt;&amp;nbsp; &amp;nbsp; &lt;span style=&quot;color: #fdac54;&quot;&gt;start&lt;/span&gt;&lt;span style=&quot;color: #ec8e2c;&quot;&gt;++&lt;/span&gt;;&lt;/div&gt;&lt;div&gt;&amp;nbsp; &amp;nbsp; &lt;span style=&quot;color: #fdac54;&quot;&gt;end&lt;/span&gt;&lt;span style=&quot;color: #ec8e2c;&quot;&gt;--&lt;/span&gt;;&lt;/div&gt;&lt;div&gt;&amp;nbsp; }&lt;/div&gt;&lt;div&gt;}&lt;/div&gt;&lt;/div&gt;" style="text;html=1;align=left;verticalAlign=middle;resizable=0;points=[];autosize=1;strokeColor=none;fillColor=none;fontSize=18;" parent="1" vertex="1">
                    <mxGeometry x="460" y="680" width="390" height="180" as="geometry"/>
                </mxCell>
                <mxCell id="29" value="&lt;font style=&quot;font-size: 18px;&quot;&gt;numbers[]&lt;/font&gt;" style="text;html=1;strokeColor=none;fillColor=none;align=center;verticalAlign=middle;whiteSpace=wrap;rounded=0;" parent="1" vertex="1">
                    <mxGeometry x="35" y="680" width="70" height="30" as="geometry"/>
                </mxCell>
                <mxCell id="30" value="2" style="rounded=0;whiteSpace=wrap;html=1;fontSize=18;" parent="1" vertex="1">
                    <mxGeometry x="125" y="680" width="50" height="40" as="geometry"/>
                </mxCell>
                <mxCell id="31" value="11" style="rounded=0;whiteSpace=wrap;html=1;fontSize=18;" parent="1" vertex="1">
                    <mxGeometry x="175" y="680" width="50" height="40" as="geometry"/>
                </mxCell>
                <mxCell id="32" value="5" style="rounded=0;whiteSpace=wrap;html=1;fontSize=18;" parent="1" vertex="1">
                    <mxGeometry x="215" y="680" width="50" height="40" as="geometry"/>
                </mxCell>
                <mxCell id="33" value="10" style="rounded=0;whiteSpace=wrap;html=1;fontSize=18;" parent="1" vertex="1">
                    <mxGeometry x="265" y="680" width="50" height="40" as="geometry"/>
                </mxCell>
                <mxCell id="34" value="7" style="rounded=0;whiteSpace=wrap;html=1;fontSize=18;" parent="1" vertex="1">
                    <mxGeometry x="315" y="680" width="50" height="40" as="geometry"/>
                </mxCell>
                <mxCell id="35" value="8" style="rounded=0;whiteSpace=wrap;html=1;fontSize=18;" parent="1" vertex="1">
                    <mxGeometry x="365" y="680" width="50" height="40" as="geometry"/>
                </mxCell>
                <mxCell id="37" value="0" style="text;html=1;align=center;verticalAlign=middle;resizable=0;points=[];autosize=1;strokeColor=none;fillColor=none;fontSize=18;" parent="1" vertex="1">
                    <mxGeometry x="130" y="720" width="30" height="40" as="geometry"/>
                </mxCell>
                <mxCell id="38" value="1" style="text;html=1;align=center;verticalAlign=middle;resizable=0;points=[];autosize=1;strokeColor=none;fillColor=none;fontSize=18;" parent="1" vertex="1">
                    <mxGeometry x="185" y="720" width="30" height="40" as="geometry"/>
                </mxCell>
                <mxCell id="39" value="2" style="text;html=1;align=center;verticalAlign=middle;resizable=0;points=[];autosize=1;strokeColor=none;fillColor=none;fontSize=18;" parent="1" vertex="1">
                    <mxGeometry x="225" y="720" width="30" height="40" as="geometry"/>
                </mxCell>
                <mxCell id="40" value="3" style="text;html=1;align=center;verticalAlign=middle;resizable=0;points=[];autosize=1;strokeColor=none;fillColor=none;fontSize=18;" parent="1" vertex="1">
                    <mxGeometry x="275" y="720" width="30" height="40" as="geometry"/>
                </mxCell>
                <mxCell id="41" value="4" style="text;html=1;align=center;verticalAlign=middle;resizable=0;points=[];autosize=1;strokeColor=none;fillColor=none;fontSize=18;" parent="1" vertex="1">
                    <mxGeometry x="325" y="720" width="30" height="40" as="geometry"/>
                </mxCell>
                <mxCell id="42" value="5" style="text;html=1;align=center;verticalAlign=middle;resizable=0;points=[];autosize=1;strokeColor=none;fillColor=none;fontSize=18;" parent="1" vertex="1">
                    <mxGeometry x="375" y="720" width="30" height="40" as="geometry"/>
                </mxCell>
                <mxCell id="44" value="&lt;font style=&quot;font-size: 18px;&quot;&gt;reverseArray[]&lt;/font&gt;" style="text;html=1;strokeColor=none;fillColor=none;align=center;verticalAlign=middle;whiteSpace=wrap;rounded=0;" parent="1" vertex="1">
                    <mxGeometry x="-20" y="770" width="115" height="30" as="geometry"/>
                </mxCell>
                <mxCell id="45" value="8" style="rounded=0;whiteSpace=wrap;html=1;fontSize=18;" parent="1" vertex="1">
                    <mxGeometry x="115" y="770" width="50" height="40" as="geometry"/>
                </mxCell>
                <mxCell id="46" value="7" style="rounded=0;whiteSpace=wrap;html=1;fontSize=18;" parent="1" vertex="1">
                    <mxGeometry x="165" y="770" width="50" height="40" as="geometry"/>
                </mxCell>
                <mxCell id="47" value="10" style="rounded=0;whiteSpace=wrap;html=1;fontSize=18;" parent="1" vertex="1">
                    <mxGeometry x="205" y="770" width="55" height="40" as="geometry"/>
                </mxCell>
                <mxCell id="48" value="5" style="rounded=0;whiteSpace=wrap;html=1;fontSize=18;" parent="1" vertex="1">
                    <mxGeometry x="255" y="770" width="50" height="40" as="geometry"/>
                </mxCell>
                <mxCell id="49" value="11" style="rounded=0;whiteSpace=wrap;html=1;fontSize=18;" parent="1" vertex="1">
                    <mxGeometry x="305" y="770" width="50" height="40" as="geometry"/>
                </mxCell>
                <mxCell id="50" value="2" style="rounded=0;whiteSpace=wrap;html=1;fontSize=18;" parent="1" vertex="1">
                    <mxGeometry x="355" y="770" width="50" height="40" as="geometry"/>
                </mxCell>
                <mxCell id="51" value="0" style="text;html=1;align=center;verticalAlign=middle;resizable=0;points=[];autosize=1;strokeColor=none;fillColor=none;fontSize=18;" parent="1" vertex="1">
                    <mxGeometry x="120" y="810" width="30" height="40" as="geometry"/>
                </mxCell>
                <mxCell id="52" value="1" style="text;html=1;align=center;verticalAlign=middle;resizable=0;points=[];autosize=1;strokeColor=none;fillColor=none;fontSize=18;" parent="1" vertex="1">
                    <mxGeometry x="175" y="810" width="30" height="40" as="geometry"/>
                </mxCell>
                <mxCell id="53" value="2" style="text;html=1;align=center;verticalAlign=middle;resizable=0;points=[];autosize=1;strokeColor=none;fillColor=none;fontSize=18;" parent="1" vertex="1">
                    <mxGeometry x="215" y="810" width="30" height="40" as="geometry"/>
                </mxCell>
                <mxCell id="54" value="3" style="text;html=1;align=center;verticalAlign=middle;resizable=0;points=[];autosize=1;strokeColor=none;fillColor=none;fontSize=18;" parent="1" vertex="1">
                    <mxGeometry x="265" y="810" width="30" height="40" as="geometry"/>
                </mxCell>
                <mxCell id="55" value="4" style="text;html=1;align=center;verticalAlign=middle;resizable=0;points=[];autosize=1;strokeColor=none;fillColor=none;fontSize=18;" parent="1" vertex="1">
                    <mxGeometry x="315" y="810" width="30" height="40" as="geometry"/>
                </mxCell>
                <mxCell id="56" value="5" style="text;html=1;align=center;verticalAlign=middle;resizable=0;points=[];autosize=1;strokeColor=none;fillColor=none;fontSize=18;" parent="1" vertex="1">
                    <mxGeometry x="365" y="810" width="30" height="40" as="geometry"/>
                </mxCell>
                <mxCell id="57" value="reverseArray(numbers, 0, numbers.length-1)" style="text;html=1;align=center;verticalAlign=middle;resizable=0;points=[];autosize=1;strokeColor=none;fillColor=none;fontSize=18;" parent="1" vertex="1">
                    <mxGeometry x="10" y="1020" width="380" height="40" as="geometry"/>
                </mxCell>
                <mxCell id="58" value="temp = 2&lt;br&gt;start = 0&lt;br&gt;end = 5" style="text;html=1;align=center;verticalAlign=middle;resizable=0;points=[];autosize=1;strokeColor=none;fillColor=none;fontSize=18;" parent="1" vertex="1">
                    <mxGeometry x="15" y="870" width="90" height="80" as="geometry"/>
                </mxCell>
                <mxCell id="59" value="&lt;font style=&quot;font-size: 18px;&quot;&gt;&lt;b&gt;Q3. Find Minimum value in Array&lt;/b&gt;&lt;/font&gt;" style="text;html=1;align=center;verticalAlign=middle;resizable=0;points=[];autosize=1;strokeColor=none;fillColor=none;" vertex="1" parent="1">
                    <mxGeometry x="15" y="1110" width="300" height="40" as="geometry"/>
                </mxCell>
                <mxCell id="67" value="&lt;font style=&quot;font-size: 18px;&quot;&gt;arr[]&lt;/font&gt;" style="text;html=1;strokeColor=none;fillColor=none;align=center;verticalAlign=middle;whiteSpace=wrap;rounded=0;" vertex="1" parent="1">
                    <mxGeometry x="20" y="1220" width="70" height="30" as="geometry"/>
                </mxCell>
                <mxCell id="68" value="5" style="rounded=0;whiteSpace=wrap;html=1;fontSize=18;" vertex="1" parent="1">
                    <mxGeometry x="110" y="1220" width="50" height="40" as="geometry"/>
                </mxCell>
                <mxCell id="69" value="9" style="rounded=0;whiteSpace=wrap;html=1;fontSize=18;" vertex="1" parent="1">
                    <mxGeometry x="160" y="1220" width="50" height="40" as="geometry"/>
                </mxCell>
                <mxCell id="70" value="3" style="rounded=0;whiteSpace=wrap;html=1;fontSize=18;" vertex="1" parent="1">
                    <mxGeometry x="200" y="1220" width="50" height="40" as="geometry"/>
                </mxCell>
                <mxCell id="71" value="15" style="rounded=0;whiteSpace=wrap;html=1;fontSize=18;" vertex="1" parent="1">
                    <mxGeometry x="250" y="1220" width="50" height="40" as="geometry"/>
                </mxCell>
                <mxCell id="72" value="1" style="rounded=0;whiteSpace=wrap;html=1;fontSize=18;" vertex="1" parent="1">
                    <mxGeometry x="300" y="1220" width="50" height="40" as="geometry"/>
                </mxCell>
                <mxCell id="73" value="2" style="rounded=0;whiteSpace=wrap;html=1;fontSize=18;" vertex="1" parent="1">
                    <mxGeometry x="350" y="1220" width="50" height="40" as="geometry"/>
                </mxCell>
                <mxCell id="74" value="0" style="text;html=1;align=center;verticalAlign=middle;resizable=0;points=[];autosize=1;strokeColor=none;fillColor=none;fontSize=18;" vertex="1" parent="1">
                    <mxGeometry x="115" y="1260" width="30" height="40" as="geometry"/>
                </mxCell>
                <mxCell id="75" value="1" style="text;html=1;align=center;verticalAlign=middle;resizable=0;points=[];autosize=1;strokeColor=none;fillColor=none;fontSize=18;" vertex="1" parent="1">
                    <mxGeometry x="165" y="1260" width="30" height="40" as="geometry"/>
                </mxCell>
                <mxCell id="76" value="2" style="text;html=1;align=center;verticalAlign=middle;resizable=0;points=[];autosize=1;strokeColor=none;fillColor=none;fontSize=18;" vertex="1" parent="1">
                    <mxGeometry x="210" y="1260" width="30" height="40" as="geometry"/>
                </mxCell>
                <mxCell id="77" value="3" style="text;html=1;align=center;verticalAlign=middle;resizable=0;points=[];autosize=1;strokeColor=none;fillColor=none;fontSize=18;" vertex="1" parent="1">
                    <mxGeometry x="260" y="1260" width="30" height="40" as="geometry"/>
                </mxCell>
                <mxCell id="78" value="4" style="text;html=1;align=center;verticalAlign=middle;resizable=0;points=[];autosize=1;strokeColor=none;fillColor=none;fontSize=18;" vertex="1" parent="1">
                    <mxGeometry x="310" y="1260" width="30" height="40" as="geometry"/>
                </mxCell>
                <mxCell id="79" value="5" style="text;html=1;align=center;verticalAlign=middle;resizable=0;points=[];autosize=1;strokeColor=none;fillColor=none;fontSize=18;" vertex="1" parent="1">
                    <mxGeometry x="360" y="1260" width="30" height="40" as="geometry"/>
                </mxCell>
                <mxCell id="84" value="" style="edgeStyle=none;html=1;fontSize=18;entryX=0.75;entryY=0;entryDx=0;entryDy=0;" edge="1" parent="1" source="80" target="68">
                    <mxGeometry relative="1" as="geometry"/>
                </mxCell>
                <mxCell id="80" value="i" style="text;html=1;align=center;verticalAlign=middle;resizable=0;points=[];autosize=1;strokeColor=none;fillColor=none;fontSize=18;" vertex="1" parent="1">
                    <mxGeometry x="130" y="1160" width="30" height="40" as="geometry"/>
                </mxCell>
                <mxCell id="85" value="i = 1&lt;br&gt;min = 5&lt;br&gt;arr.length = 6" style="text;html=1;align=left;verticalAlign=middle;resizable=0;points=[];autosize=1;strokeColor=none;fillColor=none;fontSize=18;" vertex="1" parent="1">
                    <mxGeometry x="40" y="1320" width="130" height="80" as="geometry"/>
                </mxCell>
                <mxCell id="86" value="&lt;div style=&quot;color: rgb(201, 209, 217); background-color: rgb(13, 17, 23); font-family: Consolas, &amp;quot;Courier New&amp;quot;, monospace; line-height: 19px;&quot;&gt;&lt;div style=&quot;&quot;&gt;&lt;span style=&quot;color: rgb(139, 148, 158);&quot;&gt;&lt;font style=&quot;font-size: 18px;&quot;&gt;//Q3. Find Minimum value in Array&lt;/font&gt;&lt;/span&gt;&lt;/div&gt;&lt;div style=&quot;&quot;&gt;&lt;font size=&quot;3&quot;&gt;&lt;span style=&quot;color: #ec8e2c;&quot;&gt;public&lt;/span&gt; &lt;span style=&quot;color: #ec8e2c;&quot;&gt;static&lt;/span&gt; &lt;span style=&quot;color: #ec8e2c;&quot;&gt;int&lt;/span&gt; &lt;span style=&quot;color: #d2a8ff;&quot;&gt;findMinimum&lt;/span&gt;(&lt;span style=&quot;color: #ec8e2c;&quot;&gt;int&lt;/span&gt;[] &lt;span style=&quot;color: #fdac54;&quot;&gt;arr&lt;/span&gt;){&lt;/font&gt;&lt;/div&gt;&lt;div style=&quot;&quot;&gt;&lt;font size=&quot;3&quot;&gt;&amp;nbsp; &lt;span style=&quot;color: #8b949e;&quot;&gt;// edge&lt;/span&gt;&lt;/font&gt;&lt;/div&gt;&lt;div style=&quot;&quot;&gt;&lt;font size=&quot;3&quot;&gt;&amp;nbsp; &lt;span style=&quot;color: #ec8e2c;&quot;&gt;if&lt;/span&gt;(&lt;span style=&quot;color: #fdac54;&quot;&gt;arr&lt;/span&gt; &lt;span style=&quot;color: #ec8e2c;&quot;&gt;==&lt;/span&gt; &lt;span style=&quot;color: #79c0ff;&quot;&gt;null&lt;/span&gt; &lt;span style=&quot;color: #ec8e2c;&quot;&gt;||&lt;/span&gt; &lt;span style=&quot;color: #fdac54;&quot;&gt;arr&lt;/span&gt;.&lt;span style=&quot;color: #79c0ff;&quot;&gt;length&lt;/span&gt; &lt;span style=&quot;color: #ec8e2c;&quot;&gt;==&lt;/span&gt; &lt;span style=&quot;color: #79c0ff;&quot;&gt;0&lt;/span&gt;){&lt;/font&gt;&lt;/div&gt;&lt;div style=&quot;&quot;&gt;&lt;font size=&quot;3&quot;&gt;&amp;nbsp; &amp;nbsp; &lt;span style=&quot;color: #ec8e2c;&quot;&gt;throw&lt;/span&gt; &lt;span style=&quot;color: #ec8e2c;&quot;&gt;new&lt;/span&gt; &lt;span style=&quot;color: #d2a8ff;&quot;&gt;IllegalArgumentException&lt;/span&gt;(&lt;span style=&quot;color: #a5d6ff;&quot;&gt;&quot;Invalid input&quot;&lt;/span&gt;);&lt;/font&gt;&lt;/div&gt;&lt;div style=&quot;&quot;&gt;&lt;font size=&quot;3&quot;&gt;&amp;nbsp; }&lt;/font&gt;&lt;/div&gt;&lt;font size=&quot;3&quot;&gt;&lt;br&gt;&lt;/font&gt;&lt;div style=&quot;&quot;&gt;&lt;font size=&quot;3&quot;&gt;&amp;nbsp; &lt;span style=&quot;color: #ec8e2c;&quot;&gt;int&lt;/span&gt;&lt;span style=&quot;color: #fdac54;&quot;&gt; &lt;/span&gt;min&lt;span style=&quot;color: #fdac54;&quot;&gt; &lt;/span&gt;&lt;span style=&quot;color: #ec8e2c;&quot;&gt;=&lt;/span&gt; &lt;span style=&quot;color: #fdac54;&quot;&gt;arr&lt;/span&gt;[&lt;span style=&quot;color: #79c0ff;&quot;&gt;0&lt;/span&gt;]; &amp;nbsp;&lt;span style=&quot;color: #8b949e;&quot;&gt;// min will hold the minimum of array&lt;/span&gt;&lt;/font&gt;&lt;/div&gt;&lt;div style=&quot;&quot;&gt;&lt;font size=&quot;3&quot;&gt;&amp;nbsp; &lt;span style=&quot;color: #ec8e2c;&quot;&gt;for&lt;/span&gt;(&lt;span style=&quot;color: #ec8e2c;&quot;&gt;int&lt;/span&gt;&lt;span style=&quot;color: #fdac54;&quot;&gt; &lt;/span&gt;i&lt;span style=&quot;color: #ec8e2c;&quot;&gt;=&lt;/span&gt;&lt;span style=&quot;color: #79c0ff;&quot;&gt;1&lt;/span&gt;; i&lt;span style=&quot;color: #ec8e2c;&quot;&gt;&amp;lt;&lt;/span&gt;&lt;span style=&quot;color: #fdac54;&quot;&gt;arr&lt;/span&gt;.&lt;span style=&quot;color: #79c0ff;&quot;&gt;length&lt;/span&gt;; i&lt;span style=&quot;color: #ec8e2c;&quot;&gt;++&lt;/span&gt;){&lt;/font&gt;&lt;/div&gt;&lt;div style=&quot;&quot;&gt;&lt;font size=&quot;3&quot;&gt;&amp;nbsp; &amp;nbsp; &lt;span style=&quot;color: #ec8e2c;&quot;&gt;if&lt;/span&gt;(&lt;span style=&quot;color: #fdac54;&quot;&gt;arr&lt;/span&gt;[i] &lt;span style=&quot;color: #ec8e2c;&quot;&gt;&amp;lt;&lt;/span&gt; min){&lt;/font&gt;&lt;/div&gt;&lt;div style=&quot;&quot;&gt;&lt;font size=&quot;3&quot;&gt;&amp;nbsp; &amp;nbsp; &amp;nbsp; min &lt;span style=&quot;color: #ec8e2c;&quot;&gt;=&lt;/span&gt; &lt;span style=&quot;color: #fdac54;&quot;&gt;arr&lt;/span&gt;[i];&lt;/font&gt;&lt;/div&gt;&lt;div style=&quot;&quot;&gt;&lt;font size=&quot;3&quot;&gt;&amp;nbsp; &amp;nbsp; }&lt;/font&gt;&lt;/div&gt;&lt;div style=&quot;&quot;&gt;&lt;font size=&quot;3&quot;&gt;&amp;nbsp; }&lt;/font&gt;&lt;/div&gt;&lt;div style=&quot;&quot;&gt;&lt;font size=&quot;3&quot;&gt;&amp;nbsp; &lt;span style=&quot;color: #ec8e2c;&quot;&gt;return&lt;/span&gt; min;&lt;/font&gt;&lt;/div&gt;&lt;div style=&quot;&quot;&gt;&lt;font size=&quot;3&quot;&gt;}&lt;/font&gt;&lt;/div&gt;&lt;/div&gt;" style="text;html=1;align=left;verticalAlign=middle;resizable=0;points=[];autosize=1;strokeColor=none;fillColor=none;fontSize=18;" vertex="1" parent="1">
                    <mxGeometry x="325" y="1325" width="530" height="310" as="geometry"/>
                </mxCell>
                <mxCell id="87" value="&lt;b&gt;&lt;font style=&quot;font-size: 24px;&quot;&gt;Find Second Maximum value in an Array&lt;/font&gt;&lt;/b&gt;" style="text;html=1;align=center;verticalAlign=middle;resizable=0;points=[];autosize=1;strokeColor=none;fillColor=none;fontSize=18;" vertex="1" parent="1">
                    <mxGeometry x="20" y="1730" width="480" height="40" as="geometry"/>
                </mxCell>
                <mxCell id="88" value="Q4. Given an array of integers, return second maximum value.&amp;nbsp;&lt;br&gt;The secondd maximum value exists.&lt;br&gt;&lt;br&gt;Input: arr = {12, 34, 2, 34, 33, 1}&lt;br&gt;Output: 33" style="text;html=1;align=left;verticalAlign=middle;resizable=0;points=[];autosize=1;strokeColor=none;fillColor=none;fontSize=24;" vertex="1" parent="1">
                    <mxGeometry x="30" y="1770" width="690" height="160" as="geometry"/>
                </mxCell>
                <mxCell id="89" value="&lt;font style=&quot;font-size: 18px;&quot;&gt;arr[]&lt;/font&gt;" style="text;html=1;strokeColor=none;fillColor=none;align=center;verticalAlign=middle;whiteSpace=wrap;rounded=0;" vertex="1" parent="1">
                    <mxGeometry x="30" y="2015" width="70" height="30" as="geometry"/>
                </mxCell>
                <mxCell id="90" value="13" style="rounded=0;whiteSpace=wrap;html=1;fontSize=18;" vertex="1" parent="1">
                    <mxGeometry x="110" y="2010" width="50" height="40" as="geometry"/>
                </mxCell>
                <mxCell id="91" value="34" style="rounded=0;whiteSpace=wrap;html=1;fontSize=18;" vertex="1" parent="1">
                    <mxGeometry x="160" y="2010" width="50" height="40" as="geometry"/>
                </mxCell>
                <mxCell id="92" value="2" style="rounded=0;whiteSpace=wrap;html=1;fontSize=18;" vertex="1" parent="1">
                    <mxGeometry x="200" y="2010" width="50" height="40" as="geometry"/>
                </mxCell>
                <mxCell id="93" value="34" style="rounded=0;whiteSpace=wrap;html=1;fontSize=18;" vertex="1" parent="1">
                    <mxGeometry x="250" y="2010" width="50" height="40" as="geometry"/>
                </mxCell>
                <mxCell id="94" value="33" style="rounded=0;whiteSpace=wrap;html=1;fontSize=18;" vertex="1" parent="1">
                    <mxGeometry x="300" y="2010" width="50" height="40" as="geometry"/>
                </mxCell>
                <mxCell id="95" value="1" style="rounded=0;whiteSpace=wrap;html=1;fontSize=18;" vertex="1" parent="1">
                    <mxGeometry x="350" y="2010" width="50" height="40" as="geometry"/>
                </mxCell>
                <mxCell id="96" value="0" style="text;html=1;align=center;verticalAlign=middle;resizable=0;points=[];autosize=1;strokeColor=none;fillColor=none;fontSize=18;" vertex="1" parent="1">
                    <mxGeometry x="115" y="2050" width="30" height="40" as="geometry"/>
                </mxCell>
                <mxCell id="97" value="1" style="text;html=1;align=center;verticalAlign=middle;resizable=0;points=[];autosize=1;strokeColor=none;fillColor=none;fontSize=18;" vertex="1" parent="1">
                    <mxGeometry x="165" y="2050" width="30" height="40" as="geometry"/>
                </mxCell>
                <mxCell id="98" value="2" style="text;html=1;align=center;verticalAlign=middle;resizable=0;points=[];autosize=1;strokeColor=none;fillColor=none;fontSize=18;" vertex="1" parent="1">
                    <mxGeometry x="210" y="2050" width="30" height="40" as="geometry"/>
                </mxCell>
                <mxCell id="99" value="3" style="text;html=1;align=center;verticalAlign=middle;resizable=0;points=[];autosize=1;strokeColor=none;fillColor=none;fontSize=18;" vertex="1" parent="1">
                    <mxGeometry x="260" y="2050" width="30" height="40" as="geometry"/>
                </mxCell>
                <mxCell id="100" value="4" style="text;html=1;align=center;verticalAlign=middle;resizable=0;points=[];autosize=1;strokeColor=none;fillColor=none;fontSize=18;" vertex="1" parent="1">
                    <mxGeometry x="310" y="2050" width="30" height="40" as="geometry"/>
                </mxCell>
                <mxCell id="101" value="5" style="text;html=1;align=center;verticalAlign=middle;resizable=0;points=[];autosize=1;strokeColor=none;fillColor=none;fontSize=18;" vertex="1" parent="1">
                    <mxGeometry x="360" y="2050" width="30" height="40" as="geometry"/>
                </mxCell>
                <mxCell id="102" value="" style="edgeStyle=none;html=1;fontSize=18;entryX=0.75;entryY=0;entryDx=0;entryDy=0;" edge="1" parent="1" source="103" target="90">
                    <mxGeometry relative="1" as="geometry"/>
                </mxCell>
                <mxCell id="103" value="i" style="text;html=1;align=center;verticalAlign=middle;resizable=0;points=[];autosize=1;strokeColor=none;fillColor=none;fontSize=18;" vertex="1" parent="1">
                    <mxGeometry x="130" y="1950" width="30" height="40" as="geometry"/>
                </mxCell>
                <mxCell id="104" value="secondMax = integer.MIN_VALUE&lt;br&gt;max = integer.MIN_VALUE&lt;br&gt;findSecondMax(arr);&amp;nbsp;" style="text;html=1;align=left;verticalAlign=middle;resizable=0;points=[];autosize=1;strokeColor=none;fillColor=none;fontSize=24;" vertex="1" parent="1">
                    <mxGeometry x="30" y="2210" width="390" height="100" as="geometry"/>
                </mxCell>
                <mxCell id="105" value="integer.MIN_VALUE = 2147483648" style="text;html=1;align=center;verticalAlign=middle;resizable=0;points=[];autosize=1;strokeColor=none;fillColor=none;fontSize=24;" vertex="1" parent="1">
                    <mxGeometry x="40" y="2120" width="400" height="40" as="geometry"/>
                </mxCell>
                <mxCell id="106" value="&lt;div style=&quot;color: rgb(201, 209, 217); background-color: rgb(13, 17, 23); font-family: Consolas, &amp;quot;Courier New&amp;quot;, monospace; line-height: 19px;&quot;&gt;&lt;div style=&quot;&quot;&gt;&lt;div style=&quot;line-height: 19px;&quot;&gt;&lt;div style=&quot;&quot;&gt;&lt;span style=&quot;color: rgb(139, 148, 158);&quot;&gt;&lt;font style=&quot;font-size: 18px;&quot;&gt;//Q4. Given an array of integers, return second maximum value. The secondd maximum value exists.&lt;/font&gt;&lt;/span&gt;&lt;/div&gt;&lt;div style=&quot;&quot;&gt;&lt;font size=&quot;3&quot;&gt;&lt;span style=&quot;color: #ec8e2c;&quot;&gt;public&lt;/span&gt; &lt;span style=&quot;color: #ec8e2c;&quot;&gt;static&lt;/span&gt; &lt;span style=&quot;color: #ec8e2c;&quot;&gt;int&lt;/span&gt; &lt;span style=&quot;color: #d2a8ff;&quot;&gt;findSecondMax&lt;/span&gt;(&lt;span style=&quot;color: #ec8e2c;&quot;&gt;int&lt;/span&gt;[] &lt;span style=&quot;color: #fdac54;&quot;&gt;arr&lt;/span&gt;){ &lt;/font&gt;&lt;/div&gt;&lt;div style=&quot;&quot;&gt;&lt;font size=&quot;3&quot;&gt;&amp;nbsp; &lt;span style=&quot;color: #8b949e;&quot;&gt;// edge&lt;/span&gt;&lt;/font&gt;&lt;/div&gt;&lt;div style=&quot;&quot;&gt;&lt;font size=&quot;3&quot;&gt;&amp;nbsp; &lt;span style=&quot;color: #ec8e2c;&quot;&gt;if&lt;/span&gt;(&lt;span style=&quot;color: #fdac54;&quot;&gt;arr&lt;/span&gt; &lt;span style=&quot;color: #ec8e2c;&quot;&gt;==&lt;/span&gt; &lt;span style=&quot;color: #79c0ff;&quot;&gt;null&lt;/span&gt; &lt;span style=&quot;color: #ec8e2c;&quot;&gt;||&lt;/span&gt; &lt;span style=&quot;color: #fdac54;&quot;&gt;arr&lt;/span&gt;.&lt;span style=&quot;color: #79c0ff;&quot;&gt;length&lt;/span&gt; &lt;span style=&quot;color: #ec8e2c;&quot;&gt;&amp;lt;&lt;/span&gt; &lt;span style=&quot;color: #79c0ff;&quot;&gt;2&lt;/span&gt;){&lt;/font&gt;&lt;/div&gt;&lt;div style=&quot;&quot;&gt;&lt;font size=&quot;3&quot;&gt;&amp;nbsp; &amp;nbsp; &lt;span style=&quot;color: #ec8e2c;&quot;&gt;throw&lt;/span&gt; &lt;span style=&quot;color: #ec8e2c;&quot;&gt;new&lt;/span&gt; &lt;span style=&quot;color: #d2a8ff;&quot;&gt;IllegalArgumentException&lt;/span&gt;(&lt;span style=&quot;color: #a5d6ff;&quot;&gt;&quot;Invalid input&quot;&lt;/span&gt;);&lt;/font&gt;&lt;/div&gt;&lt;div style=&quot;&quot;&gt;&lt;font size=&quot;3&quot;&gt;&amp;nbsp; &amp;nbsp; }&lt;/font&gt;&lt;/div&gt;&lt;font size=&quot;3&quot;&gt;&lt;br&gt;&lt;/font&gt;&lt;div style=&quot;&quot;&gt;&lt;font size=&quot;3&quot;&gt;&amp;nbsp; &amp;nbsp; &lt;span style=&quot;color: #ec8e2c;&quot;&gt;int&lt;/span&gt;&lt;span style=&quot;color: #fdac54;&quot;&gt; &lt;/span&gt;max&lt;span style=&quot;color: #fdac54;&quot;&gt; &lt;/span&gt;&lt;span style=&quot;color: #ec8e2c;&quot;&gt;=&lt;/span&gt; &lt;span style=&quot;color: #fdac54;&quot;&gt;Integer&lt;/span&gt;.&lt;span style=&quot;color: #79c0ff;&quot;&gt;MIN_VALUE&lt;/span&gt;;&lt;/font&gt;&lt;/div&gt;&lt;div style=&quot;&quot;&gt;&lt;font size=&quot;3&quot;&gt;&amp;nbsp; &amp;nbsp; &lt;span style=&quot;color: #ec8e2c;&quot;&gt;int&lt;/span&gt;&lt;span style=&quot;color: #fdac54;&quot;&gt; &lt;/span&gt;secondMax&lt;span style=&quot;color: #fdac54;&quot;&gt; &lt;/span&gt;&lt;span style=&quot;color: #ec8e2c;&quot;&gt;=&lt;/span&gt; &lt;span style=&quot;color: #fdac54;&quot;&gt;Integer&lt;/span&gt;.&lt;span style=&quot;color: #79c0ff;&quot;&gt;MIN_VALUE&lt;/span&gt;;&lt;/font&gt;&lt;/div&gt;&lt;div style=&quot;&quot;&gt;&lt;font size=&quot;3&quot;&gt;&amp;nbsp; &amp;nbsp; &lt;span style=&quot;color: #ec8e2c;&quot;&gt;for&lt;/span&gt;(&lt;span style=&quot;color: #ec8e2c;&quot;&gt;int&lt;/span&gt;&lt;span style=&quot;color: #fdac54;&quot;&gt; &lt;/span&gt;i&lt;span style=&quot;color: #ec8e2c;&quot;&gt;=&lt;/span&gt;&lt;span style=&quot;color: #79c0ff;&quot;&gt;0&lt;/span&gt;; i&lt;span style=&quot;color: #ec8e2c;&quot;&gt;&amp;lt;&lt;/span&gt;&lt;span style=&quot;color: #fdac54;&quot;&gt;arr&lt;/span&gt;.&lt;span style=&quot;color: #79c0ff;&quot;&gt;length&lt;/span&gt;; i&lt;span style=&quot;color: #ec8e2c;&quot;&gt;++&lt;/span&gt;){&lt;/font&gt;&lt;/div&gt;&lt;div style=&quot;&quot;&gt;&lt;font size=&quot;3&quot;&gt;&amp;nbsp; &amp;nbsp; &amp;nbsp; &lt;span style=&quot;color: #ec8e2c;&quot;&gt;if&lt;/span&gt;(&lt;span style=&quot;color: #fdac54;&quot;&gt;arr&lt;/span&gt;[i] &lt;span style=&quot;color: #ec8e2c;&quot;&gt;&amp;gt;&lt;/span&gt; max){&lt;/font&gt;&lt;/div&gt;&lt;div style=&quot;&quot;&gt;&lt;font size=&quot;3&quot;&gt;&amp;nbsp; &amp;nbsp; &amp;nbsp; &amp;nbsp; secondMax &lt;span style=&quot;color: #ec8e2c;&quot;&gt;=&lt;/span&gt; max;&lt;/font&gt;&lt;/div&gt;&lt;div style=&quot;&quot;&gt;&lt;font size=&quot;3&quot;&gt;&amp;nbsp; &amp;nbsp; &amp;nbsp; &amp;nbsp; max &lt;span style=&quot;color: #ec8e2c;&quot;&gt;=&lt;/span&gt; &lt;span style=&quot;color: #fdac54;&quot;&gt;arr&lt;/span&gt;[i];&lt;/font&gt;&lt;/div&gt;&lt;div style=&quot;&quot;&gt;&lt;font size=&quot;3&quot;&gt;&amp;nbsp; &amp;nbsp; &amp;nbsp; &amp;nbsp; }&lt;/font&gt;&lt;/div&gt;&lt;div style=&quot;&quot;&gt;&lt;font size=&quot;3&quot;&gt;&amp;nbsp; &amp;nbsp; &amp;nbsp; &amp;nbsp; &lt;span style=&quot;color: #ec8e2c;&quot;&gt;else&lt;/span&gt; &lt;span style=&quot;color: #ec8e2c;&quot;&gt;if&lt;/span&gt;(&lt;span style=&quot;color: #fdac54;&quot;&gt;arr&lt;/span&gt;[i] &lt;span style=&quot;color: #ec8e2c;&quot;&gt;&amp;gt;&lt;/span&gt; secondMax &lt;span style=&quot;color: #ec8e2c;&quot;&gt;&amp;amp;&amp;amp;&lt;/span&gt; &lt;span style=&quot;color: #fdac54;&quot;&gt;arr&lt;/span&gt;[i] &lt;span style=&quot;color: #ec8e2c;&quot;&gt;!=&lt;/span&gt; max){&lt;/font&gt;&lt;/div&gt;&lt;div style=&quot;&quot;&gt;&lt;font size=&quot;3&quot;&gt;&amp;nbsp; &amp;nbsp; &amp;nbsp; &amp;nbsp; &amp;nbsp; secondMax &lt;span style=&quot;color: #ec8e2c;&quot;&gt;=&lt;/span&gt; &lt;span style=&quot;color: #fdac54;&quot;&gt;arr&lt;/span&gt;[i];&lt;/font&gt;&lt;/div&gt;&lt;div style=&quot;&quot;&gt;&lt;font size=&quot;3&quot;&gt;&amp;nbsp; &amp;nbsp; &amp;nbsp; &amp;nbsp; &amp;nbsp; }&lt;/font&gt;&lt;/div&gt;&lt;div style=&quot;&quot;&gt;&lt;font size=&quot;3&quot;&gt;&amp;nbsp; &amp;nbsp; }&lt;/font&gt;&lt;/div&gt;&lt;div style=&quot;&quot;&gt;&lt;font size=&quot;3&quot;&gt;&amp;nbsp; &amp;nbsp; &lt;span style=&quot;color: #ec8e2c;&quot;&gt;return&lt;/span&gt; secondMax;&lt;/font&gt;&lt;/div&gt;&lt;div style=&quot;&quot;&gt;&lt;font size=&quot;3&quot;&gt;&amp;nbsp; }&lt;/font&gt;&lt;/div&gt;&lt;/div&gt;&lt;/div&gt;&lt;/div&gt;" style="text;html=1;align=left;verticalAlign=middle;resizable=0;points=[];autosize=1;strokeColor=none;fillColor=none;fontSize=24;" vertex="1" parent="1">
                    <mxGeometry x="450" y="1830" width="970" height="440" as="geometry"/>
                </mxCell>
                <mxCell id="107" value="&lt;b&gt;Move all Zero's to end of and Array&lt;/b&gt;" style="text;html=1;align=center;verticalAlign=middle;resizable=0;points=[];autosize=1;strokeColor=none;fillColor=none;fontSize=18;" vertex="1" parent="1">
                    <mxGeometry x="200" y="2400" width="320" height="40" as="geometry"/>
                </mxCell>
                <mxCell id="108" value="Q5. Given an array of integers, write a function to move all 0's to end of it while maintaining &lt;br&gt;the relative order of the non-zero elements.&lt;br&gt;&lt;br&gt;Example --&lt;br&gt;Given array of integers - {0, 1, 0, 4, 12}&lt;br&gt;&lt;br&gt;Solution --&lt;br&gt;{1, 4, 12, 0, 0}" style="text;html=1;align=left;verticalAlign=middle;resizable=0;points=[];autosize=1;strokeColor=none;fillColor=none;fontSize=18;" vertex="1" parent="1">
                    <mxGeometry x="30" y="2435" width="750" height="190" as="geometry"/>
                </mxCell>
                <mxCell id="109" value="&lt;font style=&quot;font-size: 18px;&quot;&gt;arr[]&lt;/font&gt;" style="text;html=1;strokeColor=none;fillColor=none;align=center;verticalAlign=middle;whiteSpace=wrap;rounded=0;" vertex="1" parent="1">
                    <mxGeometry x="10" y="2725" width="70" height="30" as="geometry"/>
                </mxCell>
                <mxCell id="110" value="8" style="rounded=0;whiteSpace=wrap;html=1;fontSize=18;" vertex="1" parent="1">
                    <mxGeometry x="90" y="2720" width="50" height="40" as="geometry"/>
                </mxCell>
                <mxCell id="111" value="1" style="rounded=0;whiteSpace=wrap;html=1;fontSize=18;" vertex="1" parent="1">
                    <mxGeometry x="140" y="2720" width="50" height="40" as="geometry"/>
                </mxCell>
                <mxCell id="112" value="0" style="rounded=0;whiteSpace=wrap;html=1;fontSize=18;" vertex="1" parent="1">
                    <mxGeometry x="180" y="2720" width="50" height="40" as="geometry"/>
                </mxCell>
                <mxCell id="113" value="2" style="rounded=0;whiteSpace=wrap;html=1;fontSize=18;" vertex="1" parent="1">
                    <mxGeometry x="230" y="2720" width="50" height="40" as="geometry"/>
                </mxCell>
                <mxCell id="114" value="1" style="rounded=0;whiteSpace=wrap;html=1;fontSize=18;" vertex="1" parent="1">
                    <mxGeometry x="280" y="2720" width="50" height="40" as="geometry"/>
                </mxCell>
                <mxCell id="115" value="0" style="rounded=0;whiteSpace=wrap;html=1;fontSize=18;" vertex="1" parent="1">
                    <mxGeometry x="330" y="2720" width="50" height="40" as="geometry"/>
                </mxCell>
                <mxCell id="116" value="0" style="text;html=1;align=center;verticalAlign=middle;resizable=0;points=[];autosize=1;strokeColor=none;fillColor=none;fontSize=18;" vertex="1" parent="1">
                    <mxGeometry x="95" y="2760" width="30" height="40" as="geometry"/>
                </mxCell>
                <mxCell id="117" value="1" style="text;html=1;align=center;verticalAlign=middle;resizable=0;points=[];autosize=1;strokeColor=none;fillColor=none;fontSize=18;" vertex="1" parent="1">
                    <mxGeometry x="145" y="2760" width="30" height="40" as="geometry"/>
                </mxCell>
                <mxCell id="118" value="2" style="text;html=1;align=center;verticalAlign=middle;resizable=0;points=[];autosize=1;strokeColor=none;fillColor=none;fontSize=18;" vertex="1" parent="1">
                    <mxGeometry x="190" y="2760" width="30" height="40" as="geometry"/>
                </mxCell>
                <mxCell id="119" value="3" style="text;html=1;align=center;verticalAlign=middle;resizable=0;points=[];autosize=1;strokeColor=none;fillColor=none;fontSize=18;" vertex="1" parent="1">
                    <mxGeometry x="240" y="2760" width="30" height="40" as="geometry"/>
                </mxCell>
                <mxCell id="120" value="4" style="text;html=1;align=center;verticalAlign=middle;resizable=0;points=[];autosize=1;strokeColor=none;fillColor=none;fontSize=18;" vertex="1" parent="1">
                    <mxGeometry x="290" y="2760" width="30" height="40" as="geometry"/>
                </mxCell>
                <mxCell id="121" value="5" style="text;html=1;align=center;verticalAlign=middle;resizable=0;points=[];autosize=1;strokeColor=none;fillColor=none;fontSize=18;" vertex="1" parent="1">
                    <mxGeometry x="340" y="2760" width="30" height="40" as="geometry"/>
                </mxCell>
                <mxCell id="122" value="" style="edgeStyle=none;html=1;fontSize=18;entryX=0.75;entryY=0;entryDx=0;entryDy=0;" edge="1" parent="1" source="123" target="110">
                    <mxGeometry relative="1" as="geometry"/>
                </mxCell>
                <mxCell id="123" value="i" style="text;html=1;align=center;verticalAlign=middle;resizable=0;points=[];autosize=1;strokeColor=none;fillColor=none;fontSize=18;" vertex="1" parent="1">
                    <mxGeometry x="110" y="2660" width="30" height="40" as="geometry"/>
                </mxCell>
                <mxCell id="124" value="3" style="rounded=0;whiteSpace=wrap;html=1;fontSize=18;" vertex="1" parent="1">
                    <mxGeometry x="375" y="2720" width="50" height="40" as="geometry"/>
                </mxCell>
                <mxCell id="125" value="6" style="text;html=1;align=center;verticalAlign=middle;resizable=0;points=[];autosize=1;strokeColor=none;fillColor=none;fontSize=18;" vertex="1" parent="1">
                    <mxGeometry x="385" y="2760" width="30" height="40" as="geometry"/>
                </mxCell>
                <mxCell id="127" value="" style="edgeStyle=none;html=1;fontSize=18;entryX=0.469;entryY=1.044;entryDx=0;entryDy=0;entryPerimeter=0;" edge="1" parent="1" source="126" target="116">
                    <mxGeometry relative="1" as="geometry"/>
                </mxCell>
                <mxCell id="126" value="j" style="text;html=1;align=center;verticalAlign=middle;resizable=0;points=[];autosize=1;strokeColor=none;fillColor=none;fontSize=18;" vertex="1" parent="1">
                    <mxGeometry x="95" y="2830" width="30" height="40" as="geometry"/>
                </mxCell>
                <mxCell id="128" value="n = 7" style="text;html=1;align=center;verticalAlign=middle;resizable=0;points=[];autosize=1;strokeColor=none;fillColor=none;fontSize=18;" vertex="1" parent="1">
                    <mxGeometry x="30" y="2920" width="60" height="40" as="geometry"/>
                </mxCell>
                <mxCell id="129" value="&lt;div style=&quot;color: rgb(201, 209, 217); background-color: rgb(13, 17, 23); font-family: Consolas, &amp;quot;Courier New&amp;quot;, monospace; font-size: 14px; line-height: 19px;&quot;&gt;&lt;div&gt;&lt;span style=&quot;color: #8b949e;&quot;&gt;//Q5. Given an array of integers, write a function to move all 0's to end&lt;/span&gt;&lt;/div&gt;&lt;div&gt;&lt;span style=&quot;color: #8b949e;&quot;&gt;&amp;nbsp;of it while maintaining the relative order of the non-zero elements.&lt;/span&gt;&lt;/div&gt;&lt;div&gt;&amp;nbsp; &lt;span style=&quot;color: #ec8e2c;&quot;&gt;public&lt;/span&gt; &lt;span style=&quot;color: #ec8e2c;&quot;&gt;void&lt;/span&gt; &lt;span style=&quot;color: #d2a8ff;&quot;&gt;moveZeros&lt;/span&gt;(&lt;span style=&quot;color: #ec8e2c;&quot;&gt;int&lt;/span&gt;[] &lt;span style=&quot;color: #fdac54;&quot;&gt;arr&lt;/span&gt;, &lt;span style=&quot;color: #ec8e2c;&quot;&gt;int&lt;/span&gt; &lt;span style=&quot;color: #fdac54;&quot;&gt;n&lt;/span&gt;){&lt;/div&gt;&lt;div&gt;&amp;nbsp; &amp;nbsp; &lt;span style=&quot;color: #ec8e2c;&quot;&gt;int&lt;/span&gt;&lt;span style=&quot;color: #fdac54;&quot;&gt; &lt;/span&gt;j&lt;span style=&quot;color: #fdac54;&quot;&gt; &lt;/span&gt;&lt;span style=&quot;color: #ec8e2c;&quot;&gt;=&lt;/span&gt; &lt;span style=&quot;color: #79c0ff;&quot;&gt;0&lt;/span&gt;; &amp;nbsp;&lt;span style=&quot;color: #8b949e;&quot;&gt;// focus on zeroth element&lt;/span&gt;&lt;/div&gt;&lt;div&gt;&amp;nbsp; &amp;nbsp; &lt;span style=&quot;color: #ec8e2c;&quot;&gt;for&lt;/span&gt;(&lt;span style=&quot;color: #ec8e2c;&quot;&gt;int&lt;/span&gt;&lt;span style=&quot;color: #fdac54;&quot;&gt; &lt;/span&gt;i&lt;span style=&quot;color: #fdac54;&quot;&gt; &lt;/span&gt;&lt;span style=&quot;color: #ec8e2c;&quot;&gt;=&lt;/span&gt; &lt;span style=&quot;color: #79c0ff;&quot;&gt;0&lt;/span&gt;; i&lt;span style=&quot;color: #ec8e2c;&quot;&gt;&amp;lt;&lt;/span&gt;&lt;span style=&quot;color: #fdac54;&quot;&gt;n&lt;/span&gt;; i&lt;span style=&quot;color: #ec8e2c;&quot;&gt;++&lt;/span&gt;){ &amp;nbsp; &lt;span style=&quot;color: #8b949e;&quot;&gt;// i will focus non zero elements&lt;/span&gt;&lt;/div&gt;&lt;div&gt;&amp;nbsp; &amp;nbsp; &amp;nbsp; &lt;span style=&quot;color: #ec8e2c;&quot;&gt;if&lt;/span&gt;(&lt;span style=&quot;color: #fdac54;&quot;&gt;arr&lt;/span&gt;[i] &lt;span style=&quot;color: #ec8e2c;&quot;&gt;!=&lt;/span&gt; &lt;span style=&quot;color: #79c0ff;&quot;&gt;0&lt;/span&gt; &lt;span style=&quot;color: #ec8e2c;&quot;&gt;&amp;amp;&amp;amp;&lt;/span&gt; &lt;span style=&quot;color: #fdac54;&quot;&gt;arr&lt;/span&gt;[j] &lt;span style=&quot;color: #ec8e2c;&quot;&gt;==&lt;/span&gt; &lt;span style=&quot;color: #79c0ff;&quot;&gt;0&lt;/span&gt;){&lt;/div&gt;&lt;div&gt;&amp;nbsp; &amp;nbsp; &amp;nbsp; &amp;nbsp; &lt;span style=&quot;color: #ec8e2c;&quot;&gt;int&lt;/span&gt;&lt;span style=&quot;color: #fdac54;&quot;&gt; &lt;/span&gt;temp&lt;span style=&quot;color: #fdac54;&quot;&gt; &lt;/span&gt;&lt;span style=&quot;color: #ec8e2c;&quot;&gt;=&lt;/span&gt; &lt;span style=&quot;color: #fdac54;&quot;&gt;arr&lt;/span&gt;[i];&lt;/div&gt;&lt;div&gt;&amp;nbsp; &amp;nbsp; &amp;nbsp; &amp;nbsp; &lt;span style=&quot;color: #fdac54;&quot;&gt;arr&lt;/span&gt;[i] &lt;span style=&quot;color: #ec8e2c;&quot;&gt;=&lt;/span&gt; &lt;span style=&quot;color: #fdac54;&quot;&gt;arr&lt;/span&gt;[j];&lt;/div&gt;&lt;div&gt;&amp;nbsp; &amp;nbsp; &amp;nbsp; &amp;nbsp; &lt;span style=&quot;color: #fdac54;&quot;&gt;arr&lt;/span&gt;[j] &lt;span style=&quot;color: #ec8e2c;&quot;&gt;=&lt;/span&gt; temp;&lt;/div&gt;&lt;div&gt;&amp;nbsp; &amp;nbsp; &amp;nbsp; }&lt;/div&gt;&lt;div&gt;&amp;nbsp; &amp;nbsp; &amp;nbsp; &lt;span style=&quot;color: #ec8e2c;&quot;&gt;if&lt;/span&gt;(&lt;span style=&quot;color: #fdac54;&quot;&gt;arr&lt;/span&gt;[j] &lt;span style=&quot;color: #ec8e2c;&quot;&gt;!=&lt;/span&gt; &lt;span style=&quot;color: #79c0ff;&quot;&gt;0&lt;/span&gt;){&lt;/div&gt;&lt;div&gt;&amp;nbsp; &amp;nbsp; &amp;nbsp; &amp;nbsp; j&lt;span style=&quot;color: #ec8e2c;&quot;&gt;++&lt;/span&gt;;&lt;/div&gt;&lt;div&gt;&amp;nbsp; &amp;nbsp; &amp;nbsp; }&lt;/div&gt;&lt;div&gt;&amp;nbsp; &amp;nbsp; }&lt;/div&gt;&lt;div&gt;&amp;nbsp; }&lt;/div&gt;&lt;/div&gt;" style="text;html=1;align=left;verticalAlign=middle;resizable=0;points=[];autosize=1;strokeColor=none;fillColor=none;fontSize=18;" vertex="1" parent="1">
                    <mxGeometry x="245" y="2830" width="590" height="300" as="geometry"/>
                </mxCell>
                <mxCell id="130" value="&lt;font style=&quot;font-size: 24px;&quot;&gt;&lt;b&gt;How to resize an array in java&lt;/b&gt;&lt;/font&gt;" style="text;html=1;align=center;verticalAlign=middle;resizable=0;points=[];autosize=1;strokeColor=none;fillColor=none;fontSize=18;" vertex="1" parent="1">
                    <mxGeometry x="48" y="3310" width="360" height="40" as="geometry"/>
                </mxCell>
                <mxCell id="133" value="" style="edgeStyle=none;html=1;fontSize=24;" edge="1" parent="1" source="131">
                    <mxGeometry relative="1" as="geometry">
                        <mxPoint x="145" y="3430" as="targetPoint"/>
                    </mxGeometry>
                </mxCell>
                <mxCell id="131" value="arr[]" style="text;html=1;align=center;verticalAlign=middle;resizable=0;points=[];autosize=1;strokeColor=none;fillColor=none;fontSize=24;" vertex="1" parent="1">
                    <mxGeometry x="20" y="3410" width="70" height="40" as="geometry"/>
                </mxCell>
                <mxCell id="135" value="5" style="rounded=0;whiteSpace=wrap;html=1;fontSize=18;" vertex="1" parent="1">
                    <mxGeometry x="145" y="3410" width="50" height="40" as="geometry"/>
                </mxCell>
                <mxCell id="136" value="9" style="rounded=0;whiteSpace=wrap;html=1;fontSize=18;" vertex="1" parent="1">
                    <mxGeometry x="195" y="3410" width="50" height="40" as="geometry"/>
                </mxCell>
                <mxCell id="137" value="3" style="rounded=0;whiteSpace=wrap;html=1;fontSize=18;" vertex="1" parent="1">
                    <mxGeometry x="235" y="3410" width="50" height="40" as="geometry"/>
                </mxCell>
                <mxCell id="138" value="10" style="rounded=0;whiteSpace=wrap;html=1;fontSize=18;" vertex="1" parent="1">
                    <mxGeometry x="285" y="3410" width="50" height="40" as="geometry"/>
                </mxCell>
                <mxCell id="141" value="0" style="text;html=1;align=center;verticalAlign=middle;resizable=0;points=[];autosize=1;strokeColor=none;fillColor=none;fontSize=18;" vertex="1" parent="1">
                    <mxGeometry x="150" y="3450" width="30" height="40" as="geometry"/>
                </mxCell>
                <mxCell id="142" value="1" style="text;html=1;align=center;verticalAlign=middle;resizable=0;points=[];autosize=1;strokeColor=none;fillColor=none;fontSize=18;" vertex="1" parent="1">
                    <mxGeometry x="200" y="3450" width="30" height="40" as="geometry"/>
                </mxCell>
                <mxCell id="143" value="2" style="text;html=1;align=center;verticalAlign=middle;resizable=0;points=[];autosize=1;strokeColor=none;fillColor=none;fontSize=18;" vertex="1" parent="1">
                    <mxGeometry x="245" y="3450" width="30" height="40" as="geometry"/>
                </mxCell>
                <mxCell id="144" value="3" style="text;html=1;align=center;verticalAlign=middle;resizable=0;points=[];autosize=1;strokeColor=none;fillColor=none;fontSize=18;" vertex="1" parent="1">
                    <mxGeometry x="295" y="3450" width="30" height="40" as="geometry"/>
                </mxCell>
                <mxCell id="147" value="" style="edgeStyle=none;html=1;fontSize=18;entryX=0.75;entryY=0;entryDx=0;entryDy=0;" edge="1" parent="1" source="148" target="135">
                    <mxGeometry relative="1" as="geometry"/>
                </mxCell>
                <mxCell id="148" value="i" style="text;html=1;align=center;verticalAlign=middle;resizable=0;points=[];autosize=1;strokeColor=none;fillColor=none;fontSize=18;" vertex="1" parent="1">
                    <mxGeometry x="165" y="3350" width="30" height="40" as="geometry"/>
                </mxCell>
                <mxCell id="151" value="&lt;div style=&quot;color: rgb(201, 209, 217); background-color: rgb(13, 17, 23); font-family: Consolas, &amp;quot;Courier New&amp;quot;, monospace; font-size: 14px; line-height: 19px;&quot;&gt;&lt;div&gt;&lt;span style=&quot;color: #8b949e;&quot;&gt;// Resize an array&lt;/span&gt;&lt;/div&gt;&lt;div&gt;&amp;nbsp; &lt;span style=&quot;color: #ec8e2c;&quot;&gt;public&lt;/span&gt; &lt;span style=&quot;color: #ec8e2c;&quot;&gt;int&lt;/span&gt;[] &lt;span style=&quot;color: #d2a8ff;&quot;&gt;resize&lt;/span&gt;(&lt;span style=&quot;color: #ec8e2c;&quot;&gt;int&lt;/span&gt;[] &lt;span style=&quot;color: #fdac54;&quot;&gt;arr&lt;/span&gt;, &lt;span style=&quot;color: #ec8e2c;&quot;&gt;int&lt;/span&gt; &lt;span style=&quot;color: #fdac54;&quot;&gt;capacity&lt;/span&gt;){&lt;/div&gt;&lt;div&gt;&amp;nbsp; &amp;nbsp; &lt;span style=&quot;color: #ec8e2c;&quot;&gt;int&lt;/span&gt;&lt;span style=&quot;color: #fdac54;&quot;&gt;[] &lt;/span&gt;temp&lt;span style=&quot;color: #fdac54;&quot;&gt; &lt;/span&gt;&lt;span style=&quot;color: #ec8e2c;&quot;&gt;=&lt;/span&gt; &lt;span style=&quot;color: #ec8e2c;&quot;&gt;new&lt;/span&gt; &lt;span style=&quot;color: #ec8e2c;&quot;&gt;int&lt;/span&gt;[&lt;span style=&quot;color: #fdac54;&quot;&gt;capacity&lt;/span&gt;];&lt;/div&gt;&lt;div&gt;&amp;nbsp; &amp;nbsp; &lt;span style=&quot;color: #ec8e2c;&quot;&gt;for&lt;/span&gt;(&lt;span style=&quot;color: #ec8e2c;&quot;&gt;int&lt;/span&gt;&lt;span style=&quot;color: #fdac54;&quot;&gt; &lt;/span&gt;i&lt;span style=&quot;color: #ec8e2c;&quot;&gt;=&lt;/span&gt;&lt;span style=&quot;color: #79c0ff;&quot;&gt;0&lt;/span&gt;; i&lt;span style=&quot;color: #ec8e2c;&quot;&gt;&amp;lt;&lt;/span&gt;&lt;span style=&quot;color: #fdac54;&quot;&gt;arr&lt;/span&gt;.&lt;span style=&quot;color: #79c0ff;&quot;&gt;length&lt;/span&gt;; i&lt;span style=&quot;color: #ec8e2c;&quot;&gt;++&lt;/span&gt;){&lt;/div&gt;&lt;div&gt;&amp;nbsp; &amp;nbsp; &amp;nbsp; temp[i] &lt;span style=&quot;color: #ec8e2c;&quot;&gt;=&lt;/span&gt; &lt;span style=&quot;color: #fdac54;&quot;&gt;arr&lt;/span&gt;[i];&lt;/div&gt;&lt;div&gt;&amp;nbsp; &amp;nbsp; }&lt;/div&gt;&lt;div&gt;&amp;nbsp; &amp;nbsp; &lt;span style=&quot;color: #ec8e2c;&quot;&gt;return&lt;/span&gt; temp;&lt;/div&gt;&lt;div&gt;&amp;nbsp; }&lt;/div&gt;&lt;/div&gt;" style="text;html=1;align=left;verticalAlign=middle;resizable=0;points=[];autosize=1;strokeColor=none;fillColor=none;fontSize=24;" vertex="1" parent="1">
                    <mxGeometry x="375" y="3385" width="390" height="170" as="geometry"/>
                </mxCell>
                <mxCell id="152" value="&lt;b&gt;Q7. Find the&amp;nbsp; Missing Number in an Array&lt;/b&gt;" style="text;html=1;align=center;verticalAlign=middle;resizable=0;points=[];autosize=1;strokeColor=none;fillColor=none;fontSize=24;" vertex="1" parent="1">
                    <mxGeometry x="30" y="3650" width="490" height="40" as="geometry"/>
                </mxCell>
                <mxCell id="153" value="Given an array of n-1 distinct numbers in the range of 1 to n. &lt;br&gt;Find the&amp;nbsp; missing number in it" style="text;html=1;align=left;verticalAlign=middle;resizable=0;points=[];autosize=1;strokeColor=none;fillColor=none;fontSize=24;" vertex="1" parent="1">
                    <mxGeometry x="35" y="3690" width="660" height="70" as="geometry"/>
                </mxCell>
                <mxCell id="154" value="&lt;font style=&quot;font-size: 18px;&quot;&gt;arr[]&lt;/font&gt;" style="text;html=1;strokeColor=none;fillColor=none;align=center;verticalAlign=middle;whiteSpace=wrap;rounded=0;" vertex="1" parent="1">
                    <mxGeometry x="165" y="3795" width="70" height="30" as="geometry"/>
                </mxCell>
                <mxCell id="155" value="2" style="rounded=0;whiteSpace=wrap;html=1;fontSize=18;" vertex="1" parent="1">
                    <mxGeometry x="245" y="3790" width="50" height="40" as="geometry"/>
                </mxCell>
                <mxCell id="156" value="4" style="rounded=0;whiteSpace=wrap;html=1;fontSize=18;" vertex="1" parent="1">
                    <mxGeometry x="295" y="3790" width="50" height="40" as="geometry"/>
                </mxCell>
                <mxCell id="157" value="1" style="rounded=0;whiteSpace=wrap;html=1;fontSize=18;" vertex="1" parent="1">
                    <mxGeometry x="335" y="3790" width="50" height="40" as="geometry"/>
                </mxCell>
                <mxCell id="158" value="8" style="rounded=0;whiteSpace=wrap;html=1;fontSize=18;" vertex="1" parent="1">
                    <mxGeometry x="385" y="3790" width="50" height="40" as="geometry"/>
                </mxCell>
                <mxCell id="159" value="6" style="rounded=0;whiteSpace=wrap;html=1;fontSize=18;" vertex="1" parent="1">
                    <mxGeometry x="435" y="3790" width="50" height="40" as="geometry"/>
                </mxCell>
                <mxCell id="160" value="3" style="rounded=0;whiteSpace=wrap;html=1;fontSize=18;" vertex="1" parent="1">
                    <mxGeometry x="485" y="3790" width="50" height="40" as="geometry"/>
                </mxCell>
                <mxCell id="161" value="0" style="text;html=1;align=center;verticalAlign=middle;resizable=0;points=[];autosize=1;strokeColor=none;fillColor=none;fontSize=18;" vertex="1" parent="1">
                    <mxGeometry x="250" y="3830" width="30" height="40" as="geometry"/>
                </mxCell>
                <mxCell id="162" value="1" style="text;html=1;align=center;verticalAlign=middle;resizable=0;points=[];autosize=1;strokeColor=none;fillColor=none;fontSize=18;" vertex="1" parent="1">
                    <mxGeometry x="300" y="3830" width="30" height="40" as="geometry"/>
                </mxCell>
                <mxCell id="163" value="2" style="text;html=1;align=center;verticalAlign=middle;resizable=0;points=[];autosize=1;strokeColor=none;fillColor=none;fontSize=18;" vertex="1" parent="1">
                    <mxGeometry x="345" y="3830" width="30" height="40" as="geometry"/>
                </mxCell>
                <mxCell id="164" value="3" style="text;html=1;align=center;verticalAlign=middle;resizable=0;points=[];autosize=1;strokeColor=none;fillColor=none;fontSize=18;" vertex="1" parent="1">
                    <mxGeometry x="395" y="3830" width="30" height="40" as="geometry"/>
                </mxCell>
                <mxCell id="165" value="4" style="text;html=1;align=center;verticalAlign=middle;resizable=0;points=[];autosize=1;strokeColor=none;fillColor=none;fontSize=18;" vertex="1" parent="1">
                    <mxGeometry x="445" y="3830" width="30" height="40" as="geometry"/>
                </mxCell>
                <mxCell id="166" value="5" style="text;html=1;align=center;verticalAlign=middle;resizable=0;points=[];autosize=1;strokeColor=none;fillColor=none;fontSize=18;" vertex="1" parent="1">
                    <mxGeometry x="495" y="3830" width="30" height="40" as="geometry"/>
                </mxCell>
                <mxCell id="168" value="7" style="rounded=0;whiteSpace=wrap;html=1;fontSize=18;" vertex="1" parent="1">
                    <mxGeometry x="535" y="3790" width="50" height="40" as="geometry"/>
                </mxCell>
                <mxCell id="169" value="6" style="text;html=1;align=center;verticalAlign=middle;resizable=0;points=[];autosize=1;strokeColor=none;fillColor=none;fontSize=18;" vertex="1" parent="1">
                    <mxGeometry x="545" y="3830" width="30" height="40" as="geometry"/>
                </mxCell>
                <mxCell id="170" value="Output: 5&lt;br&gt;Explanation: The missing number from range 1 to 8 is 5." style="text;html=1;align=left;verticalAlign=middle;resizable=0;points=[];autosize=1;strokeColor=none;fillColor=none;fontSize=24;" vertex="1" parent="1">
                    <mxGeometry x="50" y="3900" width="620" height="70" as="geometry"/>
                </mxCell>
                <mxCell id="171" value="T.C: O(n)" style="text;html=1;align=center;verticalAlign=middle;resizable=0;points=[];autosize=1;strokeColor=none;fillColor=none;fontSize=24;" vertex="1" parent="1">
                    <mxGeometry x="610" y="3770" width="120" height="40" as="geometry"/>
                </mxCell>
                <mxCell id="172" value="&lt;b&gt;&lt;u&gt;Mathematical Approach&lt;/u&gt;&lt;/b&gt;" style="text;html=1;align=center;verticalAlign=middle;resizable=0;points=[];autosize=1;strokeColor=none;fillColor=none;fontSize=24;" vertex="1" parent="1">
                    <mxGeometry x="295" y="4000" width="290" height="40" as="geometry"/>
                </mxCell>
                <mxCell id="173" value="The sum of first n natural numbers = 1 + 2 + 3 + 4 ... + n = n x(n + 1) / 2" style="text;html=1;align=center;verticalAlign=middle;resizable=0;points=[];autosize=1;strokeColor=none;fillColor=none;fontSize=24;" vertex="1" parent="1">
                    <mxGeometry x="15" y="4060" width="780" height="40" as="geometry"/>
                </mxCell>
                <mxCell id="174" value="1" style="rounded=0;whiteSpace=wrap;html=1;fontSize=18;" vertex="1" parent="1">
                    <mxGeometry x="290" y="4140" width="50" height="40" as="geometry"/>
                </mxCell>
                <mxCell id="175" value="2" style="rounded=0;whiteSpace=wrap;html=1;fontSize=18;" vertex="1" parent="1">
                    <mxGeometry x="340" y="4140" width="50" height="40" as="geometry"/>
                </mxCell>
                <mxCell id="176" value="3" style="rounded=0;whiteSpace=wrap;html=1;fontSize=18;" vertex="1" parent="1">
                    <mxGeometry x="380" y="4140" width="50" height="40" as="geometry"/>
                </mxCell>
                <mxCell id="177" value="5" style="rounded=0;whiteSpace=wrap;html=1;fontSize=18;" vertex="1" parent="1">
                    <mxGeometry x="430" y="4140" width="50" height="40" as="geometry"/>
                </mxCell>
                <mxCell id="178" value="0" style="text;html=1;align=center;verticalAlign=middle;resizable=0;points=[];autosize=1;strokeColor=none;fillColor=none;fontSize=18;" vertex="1" parent="1">
                    <mxGeometry x="295" y="4180" width="30" height="40" as="geometry"/>
                </mxCell>
                <mxCell id="179" value="1" style="text;html=1;align=center;verticalAlign=middle;resizable=0;points=[];autosize=1;strokeColor=none;fillColor=none;fontSize=18;" vertex="1" parent="1">
                    <mxGeometry x="345" y="4180" width="30" height="40" as="geometry"/>
                </mxCell>
                <mxCell id="180" value="2" style="text;html=1;align=center;verticalAlign=middle;resizable=0;points=[];autosize=1;strokeColor=none;fillColor=none;fontSize=18;" vertex="1" parent="1">
                    <mxGeometry x="390" y="4180" width="30" height="40" as="geometry"/>
                </mxCell>
                <mxCell id="181" value="3" style="text;html=1;align=center;verticalAlign=middle;resizable=0;points=[];autosize=1;strokeColor=none;fillColor=none;fontSize=18;" vertex="1" parent="1">
                    <mxGeometry x="440" y="4180" width="30" height="40" as="geometry"/>
                </mxCell>
                <mxCell id="182" value="arr[]" style="text;html=1;align=center;verticalAlign=middle;resizable=0;points=[];autosize=1;strokeColor=none;fillColor=none;fontSize=24;" vertex="1" parent="1">
                    <mxGeometry x="205" y="4140" width="70" height="40" as="geometry"/>
                </mxCell>
                <mxCell id="183" value="4 numbers&amp;nbsp;&lt;br&gt;1 to 5" style="text;html=1;align=center;verticalAlign=middle;resizable=0;points=[];autosize=1;strokeColor=none;fillColor=none;fontSize=24;" vertex="1" parent="1">
                    <mxGeometry x="500" y="4125" width="140" height="70" as="geometry"/>
                </mxCell>
                <mxCell id="184" value="&lt;div style=&quot;text-align: left;&quot;&gt;&lt;span style=&quot;background-color: initial;&quot;&gt;5 x (5 + 1) / 2&lt;/span&gt;&lt;/div&gt;&lt;div style=&quot;text-align: left;&quot;&gt;&lt;span style=&quot;background-color: initial;&quot;&gt;= 30 / 2&amp;nbsp;&lt;/span&gt;&lt;/div&gt;&lt;div style=&quot;text-align: left;&quot;&gt;&lt;span style=&quot;background-color: initial;&quot;&gt;= 15&lt;/span&gt;&lt;/div&gt;" style="text;html=1;align=center;verticalAlign=middle;resizable=0;points=[];autosize=1;strokeColor=none;fillColor=none;fontSize=24;" vertex="1" parent="1">
                    <mxGeometry x="250" y="4230" width="170" height="100" as="geometry"/>
                </mxCell>
                <mxCell id="185" value="15 - 1 = 14&lt;br&gt;14 -2 = 12&lt;br&gt;12 - 3 = 9&lt;br&gt;9 - 5 = 4" style="text;html=1;align=left;verticalAlign=middle;resizable=0;points=[];autosize=1;strokeColor=none;fillColor=none;fontSize=24;" vertex="1" parent="1">
                    <mxGeometry x="500" y="4230" width="140" height="130" as="geometry"/>
                </mxCell>
                <mxCell id="186" value="Output: 4&lt;br&gt;Explanation: The&amp;nbsp; missing number from range 1 to 5 is 4." style="text;html=1;align=left;verticalAlign=middle;resizable=0;points=[];autosize=1;strokeColor=none;fillColor=none;fontSize=24;" vertex="1" parent="1">
                    <mxGeometry x="35" y="4400" width="630" height="70" as="geometry"/>
                </mxCell>
                <mxCell id="187" value="2" style="rounded=0;whiteSpace=wrap;html=1;fontSize=18;" vertex="1" parent="1">
                    <mxGeometry x="297.5" y="4520" width="50" height="40" as="geometry"/>
                </mxCell>
                <mxCell id="188" value="4" style="rounded=0;whiteSpace=wrap;html=1;fontSize=18;" vertex="1" parent="1">
                    <mxGeometry x="347.5" y="4520" width="50" height="40" as="geometry"/>
                </mxCell>
                <mxCell id="189" value="1" style="rounded=0;whiteSpace=wrap;html=1;fontSize=18;" vertex="1" parent="1">
                    <mxGeometry x="387.5" y="4520" width="50" height="40" as="geometry"/>
                </mxCell>
                <mxCell id="190" value="8&lt;span style=&quot;color: rgba(0, 0, 0, 0); font-family: monospace; font-size: 0px; text-align: start;&quot;&gt;%3CmxGraphModel%3E%3Croot%3E%3CmxCell%20id%3D%220%22%2F%3E%3CmxCell%20id%3D%221%22%20parent%3D%220%22%2F%3E%3CmxCell%20id%3D%222%22%20value%3D%221%22%20style%3D%22rounded%3D0%3BwhiteSpace%3Dwrap%3Bhtml%3D1%3BfontSize%3D18%3B%22%20vertex%3D%221%22%20parent%3D%221%22%3E%3CmxGeometry%20x%3D%22290%22%20y%3D%224140%22%20width%3D%2250%22%20height%3D%2240%22%20as%3D%22geometry%22%2F%3E%3C%2FmxCell%3E%3CmxCell%20id%3D%223%22%20value%3D%222%22%20style%3D%22rounded%3D0%3BwhiteSpace%3Dwrap%3Bhtml%3D1%3BfontSize%3D18%3B%22%20vertex%3D%221%22%20parent%3D%221%22%3E%3CmxGeometry%20x%3D%22340%22%20y%3D%224140%22%20width%3D%2250%22%20height%3D%2240%22%20as%3D%22geometry%22%2F%3E%3C%2FmxCell%3E%3CmxCell%20id%3D%224%22%20value%3D%223%22%20style%3D%22rounded%3D0%3BwhiteSpace%3Dwrap%3Bhtml%3D1%3BfontSize%3D18%3B%22%20vertex%3D%221%22%20parent%3D%221%22%3E%3CmxGeometry%20x%3D%22380%22%20y%3D%224140%22%20width%3D%2250%22%20height%3D%2240%22%20as%3D%22geometry%22%2F%3E%3C%2FmxCell%3E%3CmxCell%20id%3D%225%22%20value%3D%225%22%20style%3D%22rounded%3D0%3BwhiteSpace%3Dwrap%3Bhtml%3D1%3BfontSize%3D18%3B%22%20vertex%3D%221%22%20parent%3D%221%22%3E%3CmxGeometry%20x%3D%22430%22%20y%3D%224140%22%20width%3D%2250%22%20height%3D%2240%22%20as%3D%22geometry%22%2F%3E%3C%2FmxCell%3E%3CmxCell%20id%3D%226%22%20value%3D%22arr%5B%5D%22%20style%3D%22text%3Bhtml%3D1%3Balign%3Dcenter%3BverticalAlign%3Dmiddle%3Bresizable%3D0%3Bpoints%3D%5B%5D%3Bautosize%3D1%3BstrokeColor%3Dnone%3BfillColor%3Dnone%3BfontSize%3D24%3B%22%20vertex%3D%221%22%20parent%3D%221%22%3E%3CmxGeometry%20x%3D%22205%22%20y%3D%224140%22%20width%3D%2270%22%20height%3D%2240%22%20as%3D%22geometry%22%2F%3E%3C%2FmxCell%3E%3C%2Froot%3E%3C%2FmxGraphModel%3E&lt;/span&gt;" style="rounded=0;whiteSpace=wrap;html=1;fontSize=18;" vertex="1" parent="1">
                    <mxGeometry x="437.5" y="4520" width="50" height="40" as="geometry"/>
                </mxCell>
                <mxCell id="191" value="arr[]" style="text;html=1;align=center;verticalAlign=middle;resizable=0;points=[];autosize=1;strokeColor=none;fillColor=none;fontSize=24;" vertex="1" parent="1">
                    <mxGeometry x="212.5" y="4520" width="70" height="40" as="geometry"/>
                </mxCell>
                <mxCell id="192" value="6" style="rounded=0;whiteSpace=wrap;html=1;fontSize=18;" vertex="1" parent="1">
                    <mxGeometry x="480" y="4520" width="50" height="40" as="geometry"/>
                </mxCell>
                <mxCell id="193" value="3" style="rounded=0;whiteSpace=wrap;html=1;fontSize=18;" vertex="1" parent="1">
                    <mxGeometry x="530" y="4520" width="50" height="40" as="geometry"/>
                </mxCell>
                <mxCell id="194" value="7" style="rounded=0;whiteSpace=wrap;html=1;fontSize=18;" vertex="1" parent="1">
                    <mxGeometry x="580" y="4520" width="50" height="40" as="geometry"/>
                </mxCell>
                <mxCell id="196" value="0" style="text;html=1;align=center;verticalAlign=middle;resizable=0;points=[];autosize=1;strokeColor=none;fillColor=none;fontSize=18;" vertex="1" parent="1">
                    <mxGeometry x="307.5" y="4560" width="30" height="40" as="geometry"/>
                </mxCell>
                <mxCell id="197" value="1&lt;span style=&quot;color: rgba(0, 0, 0, 0); font-family: monospace; font-size: 0px; text-align: start;&quot;&gt;%3CmxGraphModel%3E%3Croot%3E%3CmxCell%20id%3D%220%22%2F%3E%3CmxCell%20id%3D%221%22%20parent%3D%220%22%2F%3E%3CmxCell%20id%3D%222%22%20value%3D%220%22%20style%3D%22text%3Bhtml%3D1%3Balign%3Dcenter%3BverticalAlign%3Dmiddle%3Bresizable%3D0%3Bpoints%3D%5B%5D%3Bautosize%3D1%3BstrokeColor%3Dnone%3BfillColor%3Dnone%3BfontSize%3D18%3B%22%20vertex%3D%221%22%20parent%3D%221%22%3E%3CmxGeometry%20x%3D%22307.5%22%20y%3D%224560%22%20width%3D%2230%22%20height%3D%2240%22%20as%3D%22geometry%22%2F%3E%3C%2FmxCell%3E%3C%2Froot%3E%3C%2FmxGraphModel%3E&lt;/span&gt;" style="text;html=1;align=center;verticalAlign=middle;resizable=0;points=[];autosize=1;strokeColor=none;fillColor=none;fontSize=18;" vertex="1" parent="1">
                    <mxGeometry x="355" y="4560" width="30" height="40" as="geometry"/>
                </mxCell>
                <mxCell id="198" value="2" style="text;html=1;align=center;verticalAlign=middle;resizable=0;points=[];autosize=1;strokeColor=none;fillColor=none;fontSize=18;" vertex="1" parent="1">
                    <mxGeometry x="400" y="4560" width="30" height="40" as="geometry"/>
                </mxCell>
                <mxCell id="199" value="3" style="text;html=1;align=center;verticalAlign=middle;resizable=0;points=[];autosize=1;strokeColor=none;fillColor=none;fontSize=18;" vertex="1" parent="1">
                    <mxGeometry x="445" y="4560" width="30" height="40" as="geometry"/>
                </mxCell>
                <mxCell id="200" value="4" style="text;html=1;align=center;verticalAlign=middle;resizable=0;points=[];autosize=1;strokeColor=none;fillColor=none;fontSize=18;" vertex="1" parent="1">
                    <mxGeometry x="487.5" y="4560" width="30" height="40" as="geometry"/>
                </mxCell>
                <mxCell id="201" value="5" style="text;html=1;align=center;verticalAlign=middle;resizable=0;points=[];autosize=1;strokeColor=none;fillColor=none;fontSize=18;" vertex="1" parent="1">
                    <mxGeometry x="540" y="4560" width="30" height="40" as="geometry"/>
                </mxCell>
                <mxCell id="202" value="6" style="text;html=1;align=center;verticalAlign=middle;resizable=0;points=[];autosize=1;strokeColor=none;fillColor=none;fontSize=18;" vertex="1" parent="1">
                    <mxGeometry x="590" y="4560" width="30" height="40" as="geometry"/>
                </mxCell>
                <mxCell id="203" value="7&lt;br&gt;--&amp;gt; 1 to 8" style="text;html=1;align=center;verticalAlign=middle;resizable=0;points=[];autosize=1;strokeColor=none;fillColor=none;fontSize=24;" vertex="1" parent="1">
                    <mxGeometry x="680" y="4495" width="120" height="70" as="geometry"/>
                </mxCell>
                <mxCell id="204" value="&lt;div style=&quot;text-align: left;&quot;&gt;&lt;span style=&quot;background-color: initial;&quot;&gt;8*(8+1) / 2&amp;nbsp;&lt;/span&gt;&lt;/div&gt;&lt;div style=&quot;text-align: left;&quot;&gt;&lt;span style=&quot;background-color: initial;&quot;&gt;= 8*9 / 2&lt;/span&gt;&lt;/div&gt;&lt;div style=&quot;text-align: left;&quot;&gt;&lt;span style=&quot;background-color: initial;&quot;&gt;= 72 / 2&lt;/span&gt;&lt;/div&gt;&lt;div style=&quot;text-align: left;&quot;&gt;&lt;span style=&quot;background-color: initial;&quot;&gt;= 36&lt;/span&gt;&lt;/div&gt;" style="text;html=1;align=center;verticalAlign=middle;resizable=0;points=[];autosize=1;strokeColor=none;fillColor=none;fontSize=24;" vertex="1" parent="1">
                    <mxGeometry x="72.5" y="4600" width="140" height="130" as="geometry"/>
                </mxCell>
                <mxCell id="205" value="36 - 2 = 34&lt;br&gt;34 - 4 = 30&lt;br&gt;30 - 1 = 29&lt;br&gt;29 - 8 = 21&amp;nbsp;&lt;br&gt;21 - 6 = 17&lt;br&gt;17 - 3 = 14&lt;br&gt;14 - 7 = 7&amp;nbsp;" style="text;html=1;align=center;verticalAlign=middle;resizable=0;points=[];autosize=1;strokeColor=none;fillColor=none;fontSize=24;" vertex="1" parent="1">
                    <mxGeometry x="265" y="4610" width="150" height="220" as="geometry"/>
                </mxCell>
                <mxCell id="206" value="findMissingNumber(arr);" style="text;html=1;align=center;verticalAlign=middle;resizable=0;points=[];autosize=1;strokeColor=none;fillColor=none;fontSize=24;" vertex="1" parent="1">
                    <mxGeometry x="27.5" y="4870" width="280" height="40" as="geometry"/>
                </mxCell>
                <mxCell id="207" value="&lt;div style=&quot;color: rgb(201, 209, 217); background-color: rgb(13, 17, 23); font-family: Consolas, &amp;quot;Courier New&amp;quot;, monospace; font-size: 14px; line-height: 19px;&quot;&gt;&lt;div&gt;&lt;span style=&quot;color: #8b949e;&quot;&gt;// Given an array of n-1 distinct numbers in the range of 1 to n. Find the &amp;nbsp;missing number in it&lt;/span&gt;&lt;/div&gt;&lt;div&gt;&amp;nbsp; &lt;span style=&quot;color: #ec8e2c;&quot;&gt;public&lt;/span&gt; &lt;span style=&quot;color: #ec8e2c;&quot;&gt;int&lt;/span&gt; &lt;span style=&quot;color: #d2a8ff;&quot;&gt;findMissing&lt;/span&gt;(&lt;span style=&quot;color: #ec8e2c;&quot;&gt;int&lt;/span&gt;[] &lt;span style=&quot;color: #fdac54;&quot;&gt;arr&lt;/span&gt;){&lt;/div&gt;&lt;div&gt;&amp;nbsp; &amp;nbsp; &lt;span style=&quot;color: #ec8e2c;&quot;&gt;int&lt;/span&gt;&lt;span style=&quot;color: #fdac54;&quot;&gt; &lt;/span&gt;n&lt;span style=&quot;color: #fdac54;&quot;&gt; &lt;/span&gt;&lt;span style=&quot;color: #ec8e2c;&quot;&gt;=&lt;/span&gt; &lt;span style=&quot;color: #fdac54;&quot;&gt;arr&lt;/span&gt;.&lt;span style=&quot;color: #79c0ff;&quot;&gt;length&lt;/span&gt; &lt;span style=&quot;color: #ec8e2c;&quot;&gt;+&lt;/span&gt; &lt;span style=&quot;color: #79c0ff;&quot;&gt;1&lt;/span&gt;;&lt;/div&gt;&lt;div&gt;&amp;nbsp; &amp;nbsp; &lt;span style=&quot;color: #ec8e2c;&quot;&gt;int&lt;/span&gt;&lt;span style=&quot;color: #fdac54;&quot;&gt; &lt;/span&gt;sum&lt;span style=&quot;color: #fdac54;&quot;&gt; &lt;/span&gt;&lt;span style=&quot;color: #ec8e2c;&quot;&gt;=&lt;/span&gt; (n &lt;span style=&quot;color: #ec8e2c;&quot;&gt;*&lt;/span&gt; (n &lt;span style=&quot;color: #ec8e2c;&quot;&gt;+&lt;/span&gt; &lt;span style=&quot;color: #79c0ff;&quot;&gt;1&lt;/span&gt;)) &lt;span style=&quot;color: #ec8e2c;&quot;&gt;/&lt;/span&gt; &lt;span style=&quot;color: #79c0ff;&quot;&gt;2&lt;/span&gt;;&lt;/div&gt;&lt;div&gt;&amp;nbsp; &amp;nbsp; &lt;span style=&quot;color: #ec8e2c;&quot;&gt;for&lt;/span&gt;(&lt;span style=&quot;color: #ec8e2c;&quot;&gt;int&lt;/span&gt;&lt;span style=&quot;color: #fdac54;&quot;&gt; &lt;/span&gt;num&lt;span style=&quot;color: #fdac54;&quot;&gt; &lt;/span&gt;&lt;span style=&quot;color: #ec8e2c;&quot;&gt;:&lt;/span&gt; &lt;span style=&quot;color: #fdac54;&quot;&gt;arr&lt;/span&gt;){&lt;/div&gt;&lt;div&gt;&amp;nbsp; &amp;nbsp; &amp;nbsp; sum &lt;span style=&quot;color: #ec8e2c;&quot;&gt;-=&lt;/span&gt; num;&lt;/div&gt;&lt;div&gt;&amp;nbsp; &amp;nbsp; }&lt;/div&gt;&lt;div&gt;&amp;nbsp; &amp;nbsp; &lt;span style=&quot;color: #ec8e2c;&quot;&gt;return&lt;/span&gt; sum;&lt;/div&gt;&lt;div&gt;&amp;nbsp; }&lt;/div&gt;&lt;/div&gt;" style="text;html=1;align=left;verticalAlign=middle;resizable=0;points=[];autosize=1;strokeColor=none;fillColor=none;fontSize=24;" vertex="1" parent="1">
                    <mxGeometry x="320" y="4830" width="760" height="180" as="geometry"/>
                </mxCell>
            </root>
        </mxGraphModel>
    </diagram>
</mxfile>